<svg width="492" height="556" viewBox="0 0 492 556" fill="none" xmlns="http://www.w3.org/2000/svg">
<g clip-path="url(#clip0_1_33717)">
<g clip-path="url(#clip1_1_33717)">
<g clip-path="url(#clip2_1_33717)">
<path d="M0 0H474C483.941 0 492 8.05887 492 18V538C492 547.941 483.941 556 474 556H0V0Z" fill="#0E1011"/>
<path d="M34 203.5H458" stroke="#20201C"/>
<path d="M446 235H34V516H446V235Z" fill="#0E1011"/>
<path d="M44.3042 264.931C44.3042 261.851 42.3022 259.695 39.4322 259.695C36.5762 259.695 34.5742 261.865 34.5742 264.931C34.5742 268.011 36.5622 270.167 39.4182 270.167C42.2882 270.167 44.3042 268.011 44.3042 264.931ZM42.8622 264.931C42.8622 267.269 41.4902 268.851 39.4322 268.851C37.3742 268.851 36.0162 267.283 36.0162 264.931C36.0162 262.579 37.3742 261.025 39.4322 261.025C41.4902 261.025 42.8622 262.579 42.8622 264.931ZM47.613 269.999H48.915L51.771 263.153H50.399L48.873 266.975C48.635 267.577 48.411 268.165 48.299 268.613C48.187 268.193 47.991 267.619 47.753 266.975L46.255 263.153H44.855L47.613 269.999ZM55.3176 270.167C57.0116 270.167 58.1596 269.341 58.4956 267.871H57.2636C57.0396 268.655 56.3676 269.075 55.3456 269.075C54.0436 269.075 53.2876 268.277 53.1896 266.835L58.4816 266.821V266.331C58.4816 264.301 57.2076 262.957 55.2616 262.957C53.2736 262.957 51.9156 264.441 51.9156 266.583C51.9156 268.711 53.3016 270.167 55.3176 270.167ZM55.2616 264.063C56.4236 264.063 57.1656 264.819 57.1656 265.953H53.2176C53.3856 264.749 54.1136 264.063 55.2616 264.063ZM63.7315 263.097C63.4655 263.041 63.2695 263.013 63.0315 263.013C62.0935 263.013 61.4075 263.489 61.1275 264.203L61.0435 263.167H59.8115V269.999H61.1275V266.373C61.1275 265.057 61.8975 264.301 63.1435 264.301H63.7315V263.097ZM66.5544 270.167C67.6604 270.167 68.5984 269.677 68.9484 268.893L69.0884 269.999H70.2084V265.701C70.2084 263.853 69.0604 262.957 67.3664 262.957C65.6024 262.957 64.4264 263.895 64.4264 265.323H65.5744C65.5744 264.497 66.2044 264.007 67.3104 264.007C68.2344 264.007 68.9204 264.413 68.9204 265.561V265.757L66.7644 265.925C65.1544 266.051 64.2164 266.835 64.2164 268.095C64.2164 269.341 65.0844 270.167 66.5544 270.167ZM66.9324 269.145C66.0784 269.145 65.5464 268.781 65.5464 268.053C65.5464 267.381 66.0224 266.933 67.1844 266.821L68.9344 266.681V267.045C68.9344 268.333 68.1784 269.145 66.9324 269.145ZM73.2349 269.999V259.695H71.9189V269.999H73.2349ZM80.3162 269.999V265.995H82.9062L84.7962 269.999H86.3222L84.2642 265.729C85.5242 265.323 86.2242 264.315 86.2242 262.915C86.2242 261.025 84.9362 259.877 82.7662 259.877H78.9442V269.999H80.3162ZM80.3162 261.109H82.7662C84.0262 261.109 84.7822 261.753 84.7822 262.929C84.7822 264.091 84.0542 264.777 82.7802 264.777H80.3162V261.109ZM90.2022 270.167C91.8962 270.167 93.0442 269.341 93.3802 267.871H92.1482C91.9242 268.655 91.2522 269.075 90.2302 269.075C88.9282 269.075 88.1722 268.277 88.0742 266.835L93.3662 266.821V266.331C93.3662 264.301 92.0922 262.957 90.1462 262.957C88.1582 262.957 86.8002 264.441 86.8002 266.583C86.8002 268.711 88.1862 270.167 90.2022 270.167ZM90.1462 264.063C91.3082 264.063 92.0502 264.819 92.0502 265.953H88.1022C88.2702 264.749 88.9982 264.063 90.1462 264.063ZM96.3817 269.999H97.6837L100.539 263.153H99.1677L97.6417 266.975C97.4037 267.577 97.1797 268.165 97.0677 268.613C96.9557 268.193 96.7597 267.619 96.5217 266.975L95.0237 263.153H93.6237L96.3817 269.999ZM104.086 270.167C105.78 270.167 106.928 269.341 107.264 267.871H106.032C105.808 268.655 105.136 269.075 104.114 269.075C102.812 269.075 102.056 268.277 101.958 266.835L107.25 266.821V266.331C107.25 264.301 105.976 262.957 104.03 262.957C102.042 262.957 100.684 264.441 100.684 266.583C100.684 268.711 102.07 270.167 104.086 270.167ZM104.03 264.063C105.192 264.063 105.934 264.819 105.934 265.953H101.986C102.154 264.749 102.882 264.063 104.03 264.063ZM109.896 269.999V266.373C109.896 265.043 110.61 264.161 111.842 264.161C112.85 264.161 113.494 264.721 113.494 266.107V269.999H114.81V265.813C114.81 264.063 113.984 262.957 112.178 262.957C111.212 262.957 110.344 263.419 109.91 264.203L109.77 263.153H108.58V269.999H109.896ZM121.225 263.153V266.765C121.225 268.235 120.567 269.005 119.363 269.005C118.355 269.005 117.725 268.445 117.725 266.975V263.153H116.409V267.409C116.409 269.089 117.305 270.167 118.901 270.167C119.909 270.167 120.819 269.677 121.211 268.963L121.351 269.999H122.527V263.153H121.225ZM127.113 270.167C128.807 270.167 129.955 269.341 130.291 267.871H129.059C128.835 268.655 128.163 269.075 127.141 269.075C125.839 269.075 125.083 268.277 124.985 266.835L130.277 266.821V266.331C130.277 264.301 129.003 262.957 127.057 262.957C125.069 262.957 123.711 264.441 123.711 266.583C123.711 268.711 125.097 270.167 127.113 270.167ZM127.057 264.063C128.219 264.063 128.961 264.819 128.961 265.953H125.013C125.181 264.749 125.909 264.063 127.057 264.063Z" fill="white"/>
<path d="M40.2393 304.28V302.288C36.9033 302.048 34.7673 300.104 34.6953 297.176H37.7673C37.7913 298.544 38.6793 299.408 40.2393 299.6V294.488L39.4713 294.32C36.4473 293.672 34.9353 291.992 34.9353 289.352C34.9353 286.544 37.0473 284.528 40.2393 284.192V282.152H42.0873V284.192C45.1113 284.504 46.9833 286.4 47.0793 289.28H44.1033C44.0553 287.984 43.3353 287.144 42.0873 286.88V292.04L42.9033 292.232C45.9753 292.904 47.3673 294.392 47.3673 296.936C47.3673 299.864 45.3033 301.88 42.0873 302.24V304.28H40.2393ZM40.1433 291.608L40.2393 291.632V286.856C38.7993 287.096 37.9353 287.96 37.9353 289.256C37.9353 290.528 38.6073 291.272 40.1433 291.608ZM42.2553 294.92L42.0873 294.872V299.552C43.5273 299.264 44.3913 298.424 44.3913 297.2C44.3913 295.976 43.6953 295.232 42.2553 294.92ZM55.0424 302.288C51.3704 302.288 48.9464 299.936 48.9464 296.384H51.9944C51.9944 298.376 53.1704 299.552 55.1144 299.552C57.1784 299.552 58.4984 298.208 58.4984 296.072C58.4984 294.032 57.2744 292.64 55.1624 292.64C53.8184 292.64 52.5944 293.312 51.9704 294.224L49.2584 293.648L51.4184 284.456H60.5624V287.288H53.6264L52.6904 290.936C53.5304 290.384 54.5864 290.072 55.7864 290.072C59.2904 290.072 61.6184 292.448 61.6184 295.904C61.6184 299.696 58.9544 302.288 55.0424 302.288ZM65.6411 289.616L69.4331 284.456H72.9371L68.7371 290.048C69.1691 289.928 69.6251 289.856 70.0571 289.856C73.6811 289.856 76.1291 292.4 76.1291 295.952C76.1291 299.696 73.3451 302.312 69.6011 302.312C65.8091 302.312 62.9771 299.528 62.9771 295.928C62.9771 293.816 63.6731 292.28 65.6411 289.616ZM66.1211 295.952C66.1211 298.088 67.5371 299.576 69.6011 299.576C71.5931 299.576 73.0331 298.088 73.0331 295.952C73.0331 293.84 71.6171 292.376 69.6011 292.376C67.5131 292.376 66.1211 293.84 66.1211 295.952ZM77.7879 293.264C77.7879 287.816 80.7159 284.12 85.2039 284.12C89.6919 284.12 92.6439 287.816 92.6439 293.264C92.6439 298.688 89.8599 302.312 85.2039 302.312C80.5479 302.312 77.7879 298.688 77.7879 293.264ZM80.8119 293.264C80.8119 297.32 82.4439 299.6 85.2039 299.6C87.9879 299.6 89.6199 297.32 89.6199 293.264C89.6199 289.112 87.9879 286.832 85.2039 286.832C82.4439 286.832 80.8119 289.112 80.8119 293.264ZM97.9946 300.944C97.9946 302.936 96.5546 304.52 94.6106 304.76V303.584C95.6906 303.392 96.5066 302.744 96.5066 301.904C96.3146 302 96.0986 302.048 95.8106 302.048C94.8746 302.048 94.1066 301.352 94.1066 300.392C94.1066 299.24 94.8506 298.472 95.9306 298.472C97.1306 298.472 97.9946 299.456 97.9946 300.944ZM100.182 297.032C100.182 294.944 101.358 293.264 103.182 292.568C101.646 291.872 100.806 290.552 100.806 288.848C100.806 286.064 103.278 284.144 106.902 284.144C110.502 284.144 112.926 286.04 112.926 288.896C112.926 290.6 112.062 291.92 110.502 292.568C112.35 293.216 113.55 294.92 113.55 297.032C113.55 300.2 110.934 302.288 106.854 302.288C102.798 302.288 100.182 300.224 100.182 297.032ZM103.59 289.112C103.59 290.576 104.862 291.512 106.854 291.512C108.822 291.512 110.07 290.6 110.07 289.136C110.07 287.672 108.822 286.76 106.854 286.76C104.862 286.76 103.59 287.672 103.59 289.112ZM103.182 296.816C103.182 298.52 104.598 299.576 106.878 299.576C109.11 299.576 110.526 298.52 110.526 296.816C110.526 295.112 109.11 294.056 106.854 294.056C104.598 294.056 103.182 295.112 103.182 296.816ZM117.837 289.616L121.629 284.456H125.133L120.933 290.048C121.365 289.928 121.821 289.856 122.253 289.856C125.877 289.856 128.325 292.4 128.325 295.952C128.325 299.696 125.541 302.312 121.797 302.312C118.005 302.312 115.173 299.528 115.173 295.928C115.173 293.816 115.869 292.28 117.837 289.616ZM118.317 295.952C118.317 298.088 119.733 299.576 121.797 299.576C123.789 299.576 125.229 298.088 125.229 295.952C125.229 293.84 123.813 292.376 121.797 292.376C119.709 292.376 118.317 293.84 118.317 295.952ZM135.938 302.288C132.266 302.288 129.842 299.936 129.842 296.384H132.89C132.89 298.376 134.066 299.552 136.01 299.552C138.074 299.552 139.394 298.208 139.394 296.072C139.394 294.032 138.17 292.64 136.058 292.64C134.714 292.64 133.49 293.312 132.866 294.224L130.154 293.648L132.314 284.456H141.458V287.288H134.522L133.586 290.936C134.426 290.384 135.482 290.072 136.682 290.072C140.186 290.072 142.514 292.448 142.514 295.904C142.514 299.696 139.85 302.288 135.938 302.288Z" fill="white"/>
<path d="M144.749 302.145C144.221 302.145 143.777 301.713 143.777 301.197C143.777 300.669 144.221 300.237 144.749 300.237C145.277 300.237 145.721 300.669 145.721 301.197C145.721 301.713 145.277 302.145 144.749 302.145ZM146.463 297.633C146.463 294.909 147.927 293.061 150.171 293.061C152.415 293.061 153.891 294.909 153.891 297.633C153.891 300.345 152.499 302.157 150.171 302.157C147.843 302.157 146.463 300.345 146.463 297.633ZM147.975 297.633C147.975 299.661 148.791 300.801 150.171 300.801C151.563 300.801 152.379 299.661 152.379 297.633C152.379 295.557 151.563 294.417 150.171 294.417C148.791 294.417 147.975 295.557 147.975 297.633ZM154.804 297.633C154.804 294.909 156.268 293.061 158.512 293.061C160.756 293.061 162.232 294.909 162.232 297.633C162.232 300.345 160.84 302.157 158.512 302.157C156.184 302.157 154.804 300.345 154.804 297.633ZM156.316 297.633C156.316 299.661 157.132 300.801 158.512 300.801C159.904 300.801 160.72 299.661 160.72 297.633C160.72 295.557 159.904 294.417 158.512 294.417C157.132 294.417 156.316 295.557 156.316 297.633Z" fill="white" fill-opacity="0.5"/>
<path d="M195 269C196.657 269 198 267.657 198 266C198 264.343 196.657 263 195 263C193.343 263 192 264.343 192 266C192 267.657 193.343 269 195 269Z" fill="#633BE8"/>
<path opacity="0.6" d="M206.121 262.501H208.321V269.001H209.041V262.501H211.251V261.841H206.121V262.501ZM211.01 266.581C211.01 268.051 212.05 269.121 213.47 269.121C214.89 269.121 215.93 268.051 215.93 266.581C215.93 265.101 214.89 264.031 213.47 264.031C212.05 264.031 211.01 265.101 211.01 266.581ZM211.71 266.571C211.71 265.451 212.43 264.651 213.47 264.651C214.5 264.651 215.23 265.451 215.23 266.571C215.23 267.711 214.5 268.501 213.47 268.501C212.43 268.501 211.71 267.711 211.71 266.571ZM218.095 269.001V264.741H219.065V264.161H218.095V262.631H217.415V264.161H216.445V264.741H217.415V269.001H218.095ZM221.275 269.121C222.095 269.121 222.755 268.761 223.055 268.151L223.145 269.001H223.725V265.871C223.725 264.591 222.905 264.031 221.785 264.031C220.595 264.031 219.795 264.661 219.795 265.641H220.425C220.425 264.991 220.925 264.611 221.765 264.611C222.475 264.611 223.045 264.911 223.045 265.861V266.021L221.445 266.151C220.315 266.241 219.635 266.801 219.635 267.691C219.635 268.541 220.245 269.121 221.275 269.121ZM221.435 268.561C220.775 268.561 220.335 268.261 220.335 267.671C220.335 267.131 220.705 266.731 221.615 266.651L223.045 266.541V266.801C223.045 267.851 222.455 268.561 221.435 268.561ZM225.83 269.001V261.711H225.14V269.001H225.83Z" fill="white"/>
<path d="M246 269C247.657 269 249 267.657 249 266C249 264.343 247.657 263 246 263C244.343 263 243 264.343 243 266C243 267.657 244.343 269 246 269Z" fill="#E8793B"/>
<path opacity="0.6" d="M260.601 266.371C261.971 266.371 262.851 265.391 262.851 264.091C262.851 262.741 261.981 261.841 260.601 261.841H257.871V269.001H258.591V266.371H260.601ZM260.501 262.491C261.491 262.491 262.101 263.091 262.101 264.081C262.101 265.061 261.501 265.721 260.461 265.721H258.591V262.491H260.501ZM264.204 262.831C264.484 262.831 264.724 262.601 264.724 262.321C264.724 262.041 264.484 261.801 264.204 261.801C263.924 261.801 263.694 262.041 263.694 262.321C263.694 262.601 263.924 262.831 264.204 262.831ZM263.864 269.001H264.554V264.161H263.864V269.001ZM265.992 271.111H266.682V268.071C267.022 268.771 267.672 269.121 268.492 269.121C269.922 269.121 270.732 268.021 270.732 266.561C270.732 265.101 269.892 264.031 268.492 264.031C267.682 264.031 267.002 264.391 266.662 265.141L266.592 264.161H265.992V271.111ZM266.692 266.581C266.692 265.461 267.312 264.661 268.372 264.661C269.422 264.661 270.032 265.461 270.032 266.581C270.032 267.691 269.422 268.501 268.372 268.501C267.312 268.501 266.692 267.691 266.692 266.581ZM273.862 269.121C275.002 269.121 275.752 268.571 276.012 267.551H275.352C275.172 268.191 274.662 268.531 273.872 268.531C272.832 268.531 272.212 267.851 272.162 266.671H276.012V266.331C276.012 264.961 275.122 264.031 273.812 264.031C272.432 264.031 271.492 265.071 271.492 266.581C271.492 268.101 272.442 269.121 273.862 269.121ZM273.812 264.621C274.722 264.621 275.322 265.241 275.322 266.171H272.182C272.302 265.221 272.902 264.621 273.812 264.621ZM277.836 269.001V261.711H277.146V269.001H277.836ZM279.643 262.831C279.923 262.831 280.163 262.601 280.163 262.321C280.163 262.041 279.923 261.801 279.643 261.801C279.363 261.801 279.133 262.041 279.133 262.321C279.133 262.601 279.363 262.831 279.643 262.831ZM279.303 269.001H279.993V264.161H279.303V269.001ZM282.122 269.001V266.471C282.122 265.381 282.682 264.661 283.672 264.661C284.472 264.661 284.982 265.061 284.982 266.191V269.001H285.672V266.041C285.672 264.821 285.122 264.031 283.792 264.031C283.092 264.031 282.452 264.381 282.132 265.001L282.032 264.161H281.432V269.001H282.122ZM289.077 269.121C290.217 269.121 290.967 268.571 291.227 267.551H290.567C290.387 268.191 289.877 268.531 289.087 268.531C288.047 268.531 287.427 267.851 287.377 266.671H291.227V266.331C291.227 264.961 290.337 264.031 289.027 264.031C287.647 264.031 286.707 265.071 286.707 266.581C286.707 268.101 287.657 269.121 289.077 269.121ZM289.027 264.621C289.937 264.621 290.537 265.241 290.537 266.171H287.397C287.517 265.221 288.117 264.621 289.027 264.621Z" fill="white"/>
<path opacity="0.6" d="M58.1602 486.423V486.199H58.7202V486.423C58.7202 487.103 59.0882 487.551 59.7842 487.551C60.5122 487.551 60.8482 487.095 60.8482 486.415V482.271H61.4242V486.431C61.4242 487.471 60.7522 488.095 59.7842 488.095C58.7522 488.095 58.1602 487.415 58.1602 486.423ZM63.7663 488.095C62.9423 488.095 62.4543 487.631 62.4543 486.951C62.4543 486.239 62.9983 485.791 63.9023 485.719L65.1823 485.615V485.487C65.1823 484.727 64.7263 484.487 64.1583 484.487C63.4863 484.487 63.0863 484.791 63.0863 485.311H62.5823C62.5823 484.527 63.2223 484.023 64.1743 484.023C65.0703 484.023 65.7263 484.471 65.7263 485.495V487.999H65.2623L65.1903 487.319C64.9503 487.807 64.4223 488.095 63.7663 488.095ZM63.8943 487.647C64.7103 487.647 65.1823 487.079 65.1823 486.239V486.031L64.0383 486.119C63.3103 486.183 63.0143 486.503 63.0143 486.935C63.0143 487.407 63.3663 487.647 63.8943 487.647ZM67.386 487.999H66.834V484.127H67.314L67.394 484.799C67.65 484.303 68.162 484.023 68.722 484.023C69.786 484.023 70.226 484.655 70.226 485.631V487.999H69.674V485.751C69.674 484.847 69.266 484.527 68.626 484.527C67.834 484.527 67.386 485.103 67.386 485.975V487.999Z" fill="#535353"/>
<path opacity="0.6" d="M117.615 485.48H115.271V488H114.695V482.272H118.071V482.8H115.271V484.96H117.615V485.48ZM120.238 488.096C119.102 488.096 118.342 487.28 118.342 486.064C118.342 484.856 119.094 484.024 120.198 484.024C121.246 484.024 121.958 484.768 121.958 485.864V486.136H118.878C118.918 487.08 119.414 487.624 120.246 487.624C120.878 487.624 121.286 487.352 121.43 486.84H121.958C121.75 487.656 121.15 488.096 120.238 488.096ZM120.198 484.496C119.47 484.496 118.99 484.976 118.894 485.736H121.406C121.406 484.992 120.926 484.496 120.198 484.496ZM123.321 488H122.841V482.168H123.393V484.88C123.665 484.312 124.193 484.024 124.849 484.024C125.977 484.024 126.633 484.904 126.633 486.072C126.633 487.232 125.961 488.096 124.833 488.096C124.185 488.096 123.649 487.808 123.377 487.208L123.321 488ZM123.401 486.056C123.401 486.952 123.897 487.592 124.745 487.592C125.585 487.592 126.073 486.952 126.073 486.056C126.073 485.168 125.585 484.52 124.745 484.52C123.897 484.52 123.401 485.168 123.401 486.056Z" fill="#535353"/>
<path opacity="0.6" d="M172.263 487.999H171.695V482.271H172.263L174.351 487.319L176.439 482.271H177.015V487.999H176.447V485.279C176.447 484.279 176.463 483.839 176.495 483.447L174.631 487.999H174.079L172.215 483.471C172.247 483.687 172.263 484.319 172.263 485.191V487.999ZM179.398 488.095C178.574 488.095 178.086 487.631 178.086 486.951C178.086 486.239 178.63 485.791 179.534 485.719L180.814 485.615V485.487C180.814 484.727 180.358 484.487 179.79 484.487C179.118 484.487 178.718 484.791 178.718 485.311H178.214C178.214 484.527 178.854 484.023 179.806 484.023C180.702 484.023 181.358 484.471 181.358 485.495V487.999H180.894L180.822 487.319C180.582 487.807 180.054 488.095 179.398 488.095ZM179.526 487.647C180.342 487.647 180.814 487.079 180.814 486.239V486.031L179.67 486.119C178.942 486.183 178.646 486.503 178.646 486.935C178.646 487.407 178.998 487.647 179.526 487.647ZM184.49 484.079V484.575H184.186C183.474 484.575 183.018 485.055 183.018 485.791V487.999H182.466V484.127H182.986L183.026 484.727C183.178 484.311 183.586 484.039 184.13 484.039C184.25 484.039 184.354 484.047 184.49 484.079Z" fill="#535353"/>
<path opacity="0.6" d="M229.697 487.999H229.113L231.217 482.271H231.929L234.057 487.999H233.457L232.897 486.479H230.257L229.697 487.999ZM231.497 483.079L230.433 485.975H232.713L231.641 483.079C231.617 482.999 231.577 482.903 231.569 482.847C231.561 482.895 231.529 482.999 231.497 483.079ZM234.733 489.687V484.127H235.213L235.269 484.911C235.541 484.311 236.085 484.023 236.733 484.023C237.853 484.023 238.525 484.879 238.525 486.047C238.525 487.215 237.877 488.095 236.733 488.095C236.077 488.095 235.557 487.815 235.285 487.255V489.687H234.733ZM235.293 486.063C235.293 486.951 235.789 487.599 236.637 487.599C237.477 487.599 237.965 486.951 237.965 486.063C237.965 485.167 237.477 484.527 236.637 484.527C235.789 484.527 235.293 485.167 235.293 486.063ZM241.429 484.079V484.575H241.125C240.413 484.575 239.957 485.055 239.957 485.791V487.999H239.405V484.127H239.925L239.965 484.727C240.117 484.311 240.525 484.039 241.069 484.039C241.189 484.039 241.293 484.047 241.429 484.079Z" fill="#535353"/>
<path opacity="0.6" d="M286.263 487.999H285.695V482.271H286.263L288.351 487.319L290.439 482.271H291.015V487.999H290.447V485.279C290.447 484.279 290.463 483.839 290.495 483.447L288.631 487.999H288.079L286.215 483.471C286.247 483.687 286.263 484.319 286.263 485.191V487.999ZM293.398 488.095C292.574 488.095 292.086 487.631 292.086 486.951C292.086 486.239 292.63 485.791 293.534 485.719L294.814 485.615V485.487C294.814 484.727 294.358 484.487 293.79 484.487C293.118 484.487 292.718 484.791 292.718 485.311H292.214C292.214 484.527 292.854 484.023 293.806 484.023C294.702 484.023 295.358 484.471 295.358 485.495V487.999H294.894L294.822 487.319C294.582 487.807 294.054 488.095 293.398 488.095ZM293.526 487.647C294.342 487.647 294.814 487.079 294.814 486.239V486.031L293.67 486.119C292.942 486.183 292.646 486.503 292.646 486.935C292.646 487.407 292.998 487.647 293.526 487.647ZM295.988 489.687V489.231H296.412C296.748 489.231 297.084 489.207 297.276 488.687L297.444 488.231L295.876 484.127H296.46L297.708 487.503L298.932 484.127H299.5L297.724 488.887C297.5 489.495 297.124 489.743 296.572 489.743C296.34 489.743 296.164 489.727 295.988 489.687Z" fill="#535353"/>
<path opacity="0.6" d="M344.16 486.423V486.199H344.72V486.423C344.72 487.103 345.088 487.551 345.784 487.551C346.512 487.551 346.848 487.095 346.848 486.415V482.271H347.424V486.431C347.424 487.471 346.752 488.095 345.784 488.095C344.752 488.095 344.16 487.415 344.16 486.423ZM351.374 484.127H351.926V487.999H351.446L351.374 487.343C351.158 487.791 350.622 488.095 350.014 488.095C349.102 488.095 348.606 487.471 348.606 486.527V484.119H349.166V486.351C349.166 487.271 349.574 487.599 350.19 487.599C350.934 487.599 351.374 487.103 351.374 486.183V484.127ZM353.628 487.999H353.076V484.127H353.556L353.636 484.799C353.892 484.303 354.404 484.023 354.964 484.023C356.028 484.023 356.468 484.655 356.468 485.631V487.999H355.916V485.751C355.916 484.847 355.508 484.527 354.868 484.527C354.076 484.527 353.628 485.103 353.628 485.975V487.999Z" fill="#535353"/>
<path opacity="0.6" d="M401.16 486.424V486.2H401.72V486.424C401.72 487.104 402.088 487.552 402.784 487.552C403.512 487.552 403.848 487.096 403.848 486.416V482.272H404.424V486.432C404.424 487.472 403.752 488.096 402.784 488.096C401.752 488.096 401.16 487.416 401.16 486.424ZM408.374 484.128H408.926V488H408.446L408.374 487.344C408.158 487.792 407.622 488.096 407.014 488.096C406.102 488.096 405.606 487.472 405.606 486.528V484.12H406.166V486.352C406.166 487.272 406.574 487.6 407.19 487.6C407.934 487.6 408.374 487.104 408.374 486.184V484.128ZM410.652 488H410.1V482.168H410.652V488ZM411.434 489.688V489.232H411.858C412.194 489.232 412.53 489.208 412.722 488.688L412.89 488.232L411.322 484.128H411.906L413.154 487.504L414.378 484.128H414.946L413.17 488.888C412.946 489.496 412.57 489.744 412.018 489.744C411.786 489.744 411.61 489.728 411.434 489.688Z" fill="#535353"/>
<path d="M327 326V481" stroke="#353535" stroke-dasharray="4 4"/>
<path d="M34 386.545C34 386.545 65.9085 397.56 96.1731 397.991C138.173 398.588 143.137 370.193 184.846 374.059C207.902 376.196 216.475 380.258 239.375 383.233C279.914 388.5 278.444 354.574 319.385 351.723C341.473 350.185 367.248 360.142 389.202 357.706C427.933 353.41 458 325 458 325" stroke="#ED5EF0"/>
<path opacity="0.12" d="M96.1731 397.475C65.9085 397.048 34 386.11 34 386.11V485H458V325C458 325 427.933 353.209 389.202 357.475C367.248 359.893 341.473 350.007 319.385 351.535C278.444 354.365 279.914 388.051 239.375 382.822C216.475 379.868 207.902 375.835 184.846 373.713C143.137 369.874 138.173 398.069 96.1731 397.475Z" fill="url(#paint0_linear_1_33717)"/>
<path d="M34 415.594C34 415.594 61.0023 424.102 110.442 429.499C148.265 433.627 190.968 410.873 229.183 411.706C261.184 412.403 284.019 418.35 315.817 415.594C351.154 412.531 360.776 395.853 396.337 395.025C416.83 394.548 458 400.956 458 400.956" stroke="#E8793B"/>
<path opacity="0.12" d="M110.442 427.265C61.0023 422.218 34 414.26 34 414.26V481H458V400.571C458 400.571 416.83 394.578 396.337 395.024C360.776 395.798 351.154 411.396 315.817 414.26C284.019 416.838 261.184 411.276 229.183 410.624C190.968 409.846 148.265 431.126 110.442 427.265Z" fill="url(#paint1_linear_1_33717)"/>
<path d="M358.456 318H295.547C293.338 318 291.547 319.791 291.547 322V335.273C291.547 337.482 293.338 339.273 295.547 339.273H358.456C360.665 339.273 362.456 337.482 362.456 335.273V322C362.456 319.791 360.665 318 358.456 318Z" fill="#252B43"/>
<path d="M327 343.999L322.906 336.908H331.093L327 343.999Z" fill="#252B43"/>
<path d="M305.147 333.695H306.079V332.666C307.7 332.485 308.74 331.469 308.74 329.992C308.74 328.71 308.039 327.96 306.49 327.621L306.079 327.524V324.923C306.708 325.056 307.071 325.479 307.095 326.133H308.595C308.547 324.681 307.603 323.725 306.079 323.568V322.539H305.147V323.568C303.538 323.737 302.473 324.753 302.473 326.169C302.473 327.5 303.235 328.347 304.76 328.674L305.147 328.758V331.335C304.36 331.239 303.913 330.803 303.901 330.113H302.352C302.388 331.59 303.465 332.57 305.147 332.691V333.695ZM305.098 327.306C304.324 327.137 303.985 326.762 303.985 326.121C303.985 325.467 304.421 325.032 305.147 324.911V327.318L305.098 327.306ZM306.163 328.976C306.889 329.133 307.24 329.508 307.24 330.125C307.24 330.743 306.805 331.166 306.079 331.311V328.952L306.163 328.976ZM310.819 326.302C309.827 327.645 309.476 328.419 309.476 329.484C309.476 331.299 310.904 332.703 312.816 332.703C314.703 332.703 316.107 331.384 316.107 329.496C316.107 327.706 314.872 326.423 313.045 326.423C312.828 326.423 312.598 326.459 312.38 326.52L314.497 323.701H312.731L310.819 326.302ZM311.061 329.496C311.061 328.432 311.763 327.693 312.816 327.693C313.832 327.693 314.546 328.432 314.546 329.496C314.546 330.573 313.82 331.323 312.816 331.323C311.775 331.323 311.061 330.573 311.061 329.496ZM318.968 332.013C318.968 331.263 318.533 330.767 317.928 330.767C317.383 330.767 317.008 331.154 317.008 331.735C317.008 332.219 317.395 332.57 317.867 332.57C318.012 332.57 318.121 332.545 318.218 332.497C318.218 332.92 317.807 333.247 317.262 333.344V333.937C318.242 333.816 318.968 333.017 318.968 332.013ZM321.046 326.302C320.054 327.645 319.703 328.419 319.703 329.484C319.703 331.299 321.131 332.703 323.043 332.703C324.93 332.703 326.334 331.384 326.334 329.496C326.334 327.706 325.099 326.423 323.272 326.423C323.055 326.423 322.825 326.459 322.607 326.52L324.724 323.701H322.958L321.046 326.302ZM321.288 329.496C321.288 328.432 321.99 327.693 323.043 327.693C324.059 327.693 324.773 328.432 324.773 329.496C324.773 330.573 324.047 331.323 323.043 331.323C322.002 331.323 321.288 330.573 321.288 329.496ZM326.096 323.701V325.128H330.9L327.633 332.545H329.242L332.449 325.128V323.701H326.096ZM332.768 328.141C332.768 330.876 334.159 332.703 336.507 332.703C338.854 332.703 340.257 330.876 340.257 328.141C340.257 325.395 338.769 323.531 336.507 323.531C334.244 323.531 332.768 325.395 332.768 328.141ZM334.292 328.141C334.292 326.048 335.115 324.898 336.507 324.898C337.91 324.898 338.733 326.048 338.733 328.141C338.733 330.186 337.91 331.335 336.507 331.335C335.115 331.335 334.292 330.186 334.292 328.141Z" fill="white"/>
<path d="M341.709 332.633C342.029 332.633 342.297 332.371 342.297 332.059C342.297 331.74 342.029 331.478 341.709 331.478C341.39 331.478 341.121 331.74 341.121 332.059C341.121 332.371 341.39 332.633 341.709 332.633ZM342.747 329.903C342.747 331.544 343.582 332.64 344.99 332.64C346.398 332.64 347.24 331.544 347.24 329.903C347.24 328.255 346.347 327.137 344.99 327.137C343.632 327.137 342.747 328.255 342.747 329.903ZM343.661 329.903C343.661 328.647 344.155 327.957 344.99 327.957C345.832 327.957 346.326 328.647 346.326 329.903C346.326 331.13 345.832 331.819 344.99 331.819C344.155 331.819 343.661 331.13 343.661 329.903ZM347.793 329.903C347.793 331.544 348.628 332.64 350.036 332.64C351.444 332.64 352.287 331.544 352.287 329.903C352.287 328.255 351.394 327.137 350.036 327.137C348.678 327.137 347.793 328.255 347.793 329.903ZM348.707 329.903C348.707 328.647 349.201 327.957 350.036 327.957C350.878 327.957 351.372 328.647 351.372 329.903C351.372 331.13 350.878 331.819 350.036 331.819C349.201 331.819 348.707 331.13 348.707 329.903Z" fill="white" fill-opacity="0.5"/>
<g filter="url(#filter0_d_1_33717)">
<path d="M327 356C330.314 356 333 353.314 333 350C333 346.686 330.314 344 327 344C323.686 344 321 346.686 321 350C321 353.314 323.686 356 327 356Z" fill="#633BE8"/>
<path d="M327 354C329.209 354 331 352.209 331 350C331 347.791 329.209 346 327 346C324.791 346 323 347.791 323 350C323 352.209 324.791 354 327 354Z" stroke="white" stroke-width="4"/>
</g>
<path d="M415.532 266.011V269.001H416.252V266.011L418.652 261.841H417.862L416.112 264.931C415.982 265.181 415.982 265.181 415.892 265.361C415.822 265.201 415.762 265.081 415.682 264.931L413.912 261.841H413.102L415.532 266.011ZM420.566 269.121C421.706 269.121 422.456 268.571 422.716 267.551H422.056C421.876 268.191 421.366 268.531 420.576 268.531C419.536 268.531 418.916 267.851 418.866 266.671H422.716V266.331C422.716 264.961 421.826 264.031 420.516 264.031C419.136 264.031 418.196 265.071 418.196 266.581C418.196 268.101 419.146 269.121 420.566 269.121ZM420.516 264.621C421.426 264.621 422.026 265.241 422.026 266.171H418.886C419.006 265.221 419.606 264.621 420.516 264.621ZM425.161 269.121C425.981 269.121 426.641 268.761 426.941 268.151L427.031 269.001H427.611V265.871C427.611 264.591 426.791 264.031 425.671 264.031C424.481 264.031 423.681 264.661 423.681 265.641H424.311C424.311 264.991 424.811 264.611 425.651 264.611C426.361 264.611 426.931 264.911 426.931 265.861V266.021L425.331 266.151C424.201 266.241 423.521 266.801 423.521 267.691C423.521 268.541 424.131 269.121 425.161 269.121ZM425.321 268.561C424.661 268.561 424.221 268.261 424.221 267.671C424.221 267.131 424.591 266.731 425.501 266.651L426.931 266.541V266.801C426.931 267.851 426.341 268.561 425.321 268.561ZM431.525 264.101C431.355 264.061 431.225 264.051 431.075 264.051C430.395 264.051 429.885 264.391 429.695 264.911L429.645 264.161H428.995V269.001H429.685V266.241C429.685 265.321 430.255 264.721 431.145 264.721H431.525V264.101ZM433.163 269.001V261.711H432.473V269.001H433.163ZM434.14 271.111C434.36 271.161 434.58 271.181 434.87 271.181C435.56 271.181 436.03 270.871 436.31 270.111L438.53 264.161H437.82L436.29 268.381L434.73 264.161H434L435.96 269.291L435.75 269.861C435.51 270.511 435.09 270.541 434.67 270.541H434.14V271.111Z" fill="#575757"/>
<path d="M455.002 255.252H407.002C405.484 255.252 404.254 256.482 404.254 258V272C404.254 273.518 405.484 274.748 407.002 274.748H455.002C456.52 274.748 457.75 273.518 457.75 272V258C457.75 256.482 456.52 255.252 455.002 255.252Z" stroke="#20201C" stroke-width="0.503496"/>
<path d="M449.531 264.523L447.266 266.789L445 264.523" stroke="#575757" stroke-width="0.704895"/>
<path d="M448.25 103C453.635 103 458.075 98.6106 457.27 93.2863C455.976 84.7255 452.98 76.4756 448.422 69.0376C442.158 58.8166 433.19 50.5268 422.509 45.0846C411.828 39.6424 399.851 37.2598 387.9 38.2004C375.95 39.1409 364.492 43.3678 354.794 50.4139C345.096 57.4599 337.535 67.0506 332.948 78.1256C328.36 89.2005 326.925 101.328 328.8 113.168C330.676 125.008 335.788 136.099 343.574 145.214C349.239 151.848 356.159 157.247 363.901 161.123C368.716 163.533 374.263 160.667 375.927 155.546C377.591 150.425 374.709 145.008 370.059 142.293C365.674 139.733 361.729 136.446 358.402 132.55C352.952 126.169 349.373 118.406 348.06 110.118C346.748 101.83 347.752 93.3404 350.963 85.5879C354.175 77.8354 359.467 71.122 366.256 66.1897C373.044 61.2575 381.065 58.2986 389.43 57.6403C397.795 56.9819 406.18 58.6497 413.657 62.4592C421.133 66.2687 427.411 72.0716 431.795 79.2263C434.472 83.5946 436.38 88.363 437.459 93.3243C438.604 98.5859 442.865 103 448.25 103Z" fill="#202225"/>
<path d="M358.399 146.071C355.026 150.268 355.667 156.479 360.322 159.186C365.06 161.942 370.139 164.094 375.442 165.582C383.883 167.951 392.716 168.587 401.409 167.453C410.102 166.319 418.476 163.438 426.027 158.984C433.578 154.53 440.15 148.594 445.348 141.534C450.545 134.474 454.26 126.435 456.27 117.902C458.281 109.369 458.544 100.517 457.044 91.8796C455.544 83.2419 452.312 74.9969 447.543 67.6407C444.547 63.0193 440.984 58.8086 436.944 55.1029C432.977 51.4626 426.856 52.6955 423.85 57.1628C420.843 61.6301 422.126 67.6295 425.852 71.5172C427.832 73.5827 429.617 75.8355 431.181 78.2482C434.519 83.3976 436.781 89.1691 437.831 95.2155C438.881 101.262 438.697 107.458 437.29 113.431C435.883 119.404 433.282 125.031 429.644 129.974C426.006 134.916 421.405 139.071 416.12 142.189C410.834 145.307 404.972 147.323 398.887 148.117C392.802 148.911 386.619 148.465 380.71 146.807C377.941 146.03 375.26 144.995 372.7 143.718C367.881 141.316 361.771 141.873 358.399 146.071Z" fill="#C8995E"/>
<path d="M376.9 102.24C373.84 102.24 371.82 100.28 371.82 97.3196H374.36C374.36 98.9796 375.34 99.9596 376.96 99.9596C378.68 99.9596 379.78 98.8396 379.78 97.0596C379.78 95.3596 378.76 94.1996 377 94.1996C375.88 94.1996 374.86 94.7596 374.34 95.5196L372.08 95.0396L373.88 87.3796H381.5V89.7396H375.72L374.94 92.7796C375.64 92.3196 376.52 92.0596 377.52 92.0596C380.44 92.0596 382.38 94.0396 382.38 96.9196C382.38 100.08 380.16 102.24 376.9 102.24ZM385.932 91.6796L389.092 87.3796H392.012L388.512 92.0396C388.872 91.9396 389.252 91.8796 389.612 91.8796C392.632 91.8796 394.672 93.9996 394.672 96.9596C394.672 100.08 392.352 102.26 389.232 102.26C386.072 102.26 383.712 99.9396 383.712 96.9396C383.712 95.1796 384.292 93.8996 385.932 91.6796ZM386.332 96.9596C386.332 98.7396 387.512 99.9796 389.232 99.9796C390.892 99.9796 392.092 98.7396 392.092 96.9596C392.092 95.1996 390.912 93.9796 389.232 93.9796C387.492 93.9796 386.332 95.1996 386.332 96.9596ZM403.715 90.9396C403.715 93.1996 402.115 94.7796 399.895 94.7796C397.675 94.7796 396.075 93.1996 396.075 90.9396C396.075 88.6996 397.675 87.0996 399.895 87.0996C402.115 87.0996 403.715 88.6996 403.715 90.9396ZM411.735 87.3996L400.635 102H398.195L409.295 87.3996H411.735ZM401.775 90.9396C401.775 89.7796 401.015 88.9796 399.895 88.9796C398.775 88.9796 398.035 89.7796 398.035 90.9396C398.035 92.0996 398.795 92.8996 399.895 92.8996C401.015 92.8996 401.775 92.0996 401.775 90.9396ZM413.875 98.4196C413.875 100.66 412.295 102.26 410.075 102.26C407.835 102.26 406.255 100.66 406.255 98.4196C406.255 96.1796 407.835 94.5796 410.075 94.5796C412.295 94.5796 413.875 96.1796 413.875 98.4196ZM411.935 98.4196C411.935 97.2596 411.175 96.4596 410.075 96.4596C408.955 96.4596 408.195 97.2596 408.195 98.4196C408.195 99.5796 408.955 100.38 410.075 100.38C411.175 100.38 411.935 99.5796 411.935 98.4196Z" fill="#9E9E9E"/>
<path d="M368.907 113.408V121.208H372.855V122H368.043V113.408H368.907ZM376.287 122.144C374.583 122.144 373.443 120.92 373.443 119.096C373.443 117.284 374.571 116.036 376.227 116.036C377.799 116.036 378.867 117.152 378.867 118.796V119.204H374.247C374.307 120.62 375.051 121.436 376.299 121.436C377.247 121.436 377.859 121.028 378.075 120.26H378.867C378.555 121.484 377.655 122.144 376.287 122.144ZM376.227 116.744C375.135 116.744 374.415 117.464 374.271 118.604H378.039C378.039 117.488 377.319 116.744 376.227 116.744ZM381.801 122.144C380.565 122.144 379.833 121.448 379.833 120.428C379.833 119.36 380.649 118.688 382.005 118.58L383.925 118.424V118.232C383.925 117.092 383.241 116.732 382.389 116.732C381.381 116.732 380.781 117.188 380.781 117.968H380.025C380.025 116.792 380.985 116.036 382.413 116.036C383.757 116.036 384.741 116.708 384.741 118.244V122H384.045L383.937 120.98C383.577 121.712 382.785 122.144 381.801 122.144ZM381.993 121.472C383.217 121.472 383.925 120.62 383.925 119.36V119.048L382.209 119.18C381.117 119.276 380.673 119.756 380.673 120.404C380.673 121.112 381.201 121.472 381.993 121.472ZM388.682 122.144C386.99 122.144 385.994 120.848 385.994 119.108C385.994 117.356 386.99 116.036 388.718 116.036C389.678 116.036 390.446 116.456 390.854 117.296V113.252H391.682V122H390.962L390.878 120.812C390.47 121.712 389.654 122.144 388.682 122.144ZM388.826 121.388C390.098 121.388 390.842 120.428 390.842 119.084C390.842 117.752 390.098 116.78 388.826 116.78C387.566 116.78 386.834 117.752 386.834 119.084C386.834 120.428 387.566 121.388 388.826 121.388ZM392.918 120.368H393.71C393.71 121.04 394.214 121.46 395.03 121.46C395.93 121.46 396.458 121.076 396.458 120.452C396.458 119.972 396.218 119.696 395.534 119.528L394.538 119.276C393.53 119.024 393.038 118.496 393.038 117.704C393.038 116.684 393.89 116.036 395.138 116.036C396.362 116.036 397.154 116.708 397.19 117.788H396.386C396.362 117.116 395.894 116.72 395.114 116.72C394.298 116.72 393.842 117.068 393.842 117.692C393.842 118.136 394.154 118.448 394.79 118.604L395.786 118.856C396.794 119.108 397.25 119.576 397.25 120.416C397.25 121.46 396.362 122.144 395.042 122.144C393.734 122.144 392.918 121.448 392.918 120.368ZM399.934 122L397.378 113.408H398.278L400.018 119.312C400.138 119.732 400.246 120.164 400.354 120.728C400.498 120.104 400.618 119.732 400.75 119.312L402.622 113.408H403.522L405.394 119.312C405.526 119.744 405.646 120.176 405.778 120.728C405.91 120.068 406.018 119.648 406.114 119.324L407.89 113.408H408.766L406.186 122H405.37L403.066 114.704L400.762 122H399.934ZM410.212 114.596C409.876 114.596 409.6 114.32 409.6 113.984C409.6 113.648 409.876 113.36 410.212 113.36C410.548 113.36 410.836 113.648 410.836 113.984C410.836 114.32 410.548 114.596 410.212 114.596ZM409.804 122V116.192H410.632V122H409.804ZM413.187 122H412.359V116.192H413.079L413.199 117.2C413.583 116.456 414.351 116.036 415.191 116.036C416.787 116.036 417.447 116.984 417.447 118.448V122H416.619V118.628C416.619 117.272 416.007 116.792 415.047 116.792C413.859 116.792 413.187 117.656 413.187 118.964V122Z" fill="#9E9E9E"/>
<path d="M34.2812 46.3393V44.5393H44.9412V46.3393H40.6012V58.9993H38.6413V46.3393H34.2812ZM44.3697 54.0993C44.3697 51.0793 46.5296 48.9593 49.4697 48.9593C52.3897 48.9593 54.5497 51.0793 54.5497 54.0993C54.5497 57.1193 52.3897 59.2393 49.4697 59.2393C46.5296 59.2393 44.3697 57.1193 44.3697 54.0993ZM46.2696 54.0993C46.2696 56.1393 47.5697 57.5593 49.4697 57.5593C51.3496 57.5593 52.6697 56.1393 52.6697 54.0993C52.6697 52.0593 51.3496 50.6393 49.4697 50.6393C47.5697 50.6393 46.2696 52.0593 46.2696 54.0993ZM59.2932 58.9993H57.4132V50.7993H55.4932V49.2193H57.4132V46.1593H59.2932V49.2193H61.2132V50.7993H59.2932V58.9993ZM65.6432 59.2393C63.5431 59.2393 62.3032 58.0593 62.3032 56.2793C62.3032 54.4793 63.6432 53.3593 65.9432 53.1793L69.0231 52.9393V52.6593C69.0231 51.0193 68.0432 50.4393 66.7232 50.4393C65.1432 50.4393 64.2431 51.1393 64.2431 52.3193H62.6031C62.6031 50.2793 64.2832 48.9393 66.8032 48.9393C69.2232 48.9393 70.8632 50.2193 70.8632 52.8593V58.9993H69.2632L69.0631 57.4193C68.5631 58.5393 67.2232 59.2393 65.6432 59.2393ZM66.1832 57.7793C67.9632 57.7793 69.0432 56.6193 69.0432 54.7793V54.2593L66.5432 54.4593C64.8832 54.6193 64.2031 55.2593 64.2031 56.2193C64.2031 57.2593 64.9632 57.7793 66.1832 57.7793ZM75.3867 58.9993H73.5068V44.2793H75.3867V58.9993ZM85.903 44.5393V57.1793H92.263V58.9993H83.943V44.5393H85.903ZM98.0968 59.2393C95.2168 59.2393 93.2369 57.1593 93.2369 54.1193C93.2369 51.0593 95.1769 48.9393 98.0169 48.9393C100.797 48.9393 102.617 50.8593 102.617 53.7593V54.4593L95.0569 54.4793C95.1969 56.5393 96.2768 57.6793 98.1368 57.6793C99.5968 57.6793 100.557 57.0793 100.877 55.9593H102.637C102.157 58.0593 100.517 59.2393 98.0968 59.2393ZM98.0169 50.5193C96.3769 50.5193 95.3368 51.4993 95.0968 53.2193H100.737C100.737 51.5993 99.6769 50.5193 98.0169 50.5193ZM107.479 59.2393C105.379 59.2393 104.139 58.0593 104.139 56.2793C104.139 54.4793 105.479 53.3593 107.779 53.1793L110.859 52.9393V52.6593C110.859 51.0193 109.879 50.4393 108.559 50.4393C106.979 50.4393 106.079 51.1393 106.079 52.3193H104.439C104.439 50.2793 106.119 48.9393 108.639 48.9393C111.059 48.9393 112.699 50.2193 112.699 52.8593V58.9993H111.099L110.899 57.4193C110.399 58.5393 109.059 59.2393 107.479 59.2393ZM108.019 57.7793C109.799 57.7793 110.879 56.6193 110.879 54.7793V54.2593L108.379 54.4593C106.719 54.6193 106.039 55.2593 106.039 56.2193C106.039 57.2593 106.799 57.7793 108.019 57.7793ZM119.222 59.2393C116.382 59.2393 114.662 57.1193 114.662 54.1393C114.662 51.1393 116.402 48.9393 119.302 48.9393C120.802 48.9393 122.062 49.5993 122.722 50.7993V44.2793H124.582V58.9993H122.902L122.742 57.2193C122.102 58.5593 120.782 59.2393 119.222 59.2393ZM119.602 57.5393C121.522 57.5393 122.702 56.1193 122.702 54.0793C122.702 52.0793 121.522 50.6393 119.602 50.6393C117.682 50.6393 116.562 52.0793 116.562 54.0793C116.562 56.0993 117.682 57.5393 119.602 57.5393ZM126.495 56.1593H128.295C128.295 57.1593 129.055 57.7593 130.295 57.7593C131.615 57.7593 132.375 57.2193 132.375 56.3193C132.375 55.6593 132.055 55.2593 131.035 54.9993L129.315 54.5993C127.575 54.1793 126.755 53.3193 126.755 51.8793C126.755 50.0793 128.275 48.9393 130.435 48.9393C132.575 48.9393 133.975 50.1393 134.015 51.9993H132.215C132.175 51.0193 131.515 50.3993 130.375 50.3993C129.195 50.3993 128.535 50.9193 128.535 51.8193C128.535 52.4793 129.015 52.9193 129.975 53.1593L131.695 53.5793C133.355 53.9793 134.175 54.7393 134.175 56.1993C134.175 58.0593 132.575 59.2393 130.255 59.2393C127.955 59.2393 126.495 58.0193 126.495 56.1593Z" fill="white"/>
<path d="M40.8728 85.9993V85.0613H36.1828V75.9473H35.1328V85.9993H40.8728ZM46.8996 85.9993H47.7396V81.1973C47.7396 79.4893 46.7316 78.4813 45.0096 78.4813C43.3296 78.4813 42.1956 79.5733 42.1536 81.2113H43.0496C43.0636 80.0073 43.8196 79.2653 45.0236 79.2653C46.1436 79.2653 46.8016 79.9933 46.8016 81.2253V81.8413C46.0736 81.7853 45.7376 81.7573 45.2896 81.7573C43.0496 81.7573 41.9016 82.5133 41.9016 83.9553C41.9016 85.2853 42.8956 86.1393 44.4216 86.1393C45.5696 86.1393 46.4656 85.5793 46.8996 84.6553V85.9993ZM42.8396 83.9273C42.8396 82.9053 43.6516 82.4153 45.3316 82.4153C45.7376 82.4153 46.1716 82.4293 46.8016 82.4853V83.1433C46.8016 84.5293 45.9336 85.4253 44.5616 85.4253C43.5256 85.4253 42.8396 84.8233 42.8396 83.9273ZM55.3171 83.9413C55.3171 82.8913 54.6591 82.2753 53.1891 81.9953L52.0831 81.7853C50.9911 81.5753 50.5431 81.2253 50.5431 80.4973C50.5431 79.7273 51.2571 79.2373 52.2931 79.2373C53.4551 79.2373 54.1971 79.8393 54.2951 80.8613H55.2191C55.1071 79.3913 53.9871 78.4813 52.2931 78.4813C50.6831 78.4813 49.5911 79.3493 49.5911 80.5813C49.5911 81.6453 50.3331 82.3313 51.7331 82.5973L52.7971 82.8073C53.9171 83.0313 54.3371 83.3673 54.3371 84.0953C54.3371 84.9353 53.6091 85.3973 52.4051 85.3973C51.1451 85.3973 50.3191 84.7393 50.2491 83.6893H49.3111C49.4511 85.2153 50.5711 86.1393 52.4051 86.1393C54.2251 86.1393 55.3171 85.2993 55.3171 83.9413ZM60.7591 85.0613C60.4511 85.1873 60.1991 85.2433 59.8911 85.2433C59.0791 85.2433 58.5191 84.8513 58.5191 83.7033V79.4473H60.8291V78.6213H58.5191V76.4373H57.5391V78.6213H55.8031V79.4473H57.5391V83.9133C57.5391 85.5093 58.4771 86.1393 59.6951 86.1393C60.0591 86.1393 60.3811 86.0833 60.7591 85.9293V85.0613ZM73.0066 85.9993H74.1126L76.7586 75.9473H75.7226L73.5386 84.5013L71.2146 75.9473H70.0946L67.7426 84.4733L65.5726 75.9473H64.5506L67.1966 85.9993H68.2886L70.6546 77.3753L73.0066 85.9993ZM80.4256 86.1393C82.1196 86.1393 83.3656 85.1453 83.7016 83.5073H82.7356C82.4976 84.6833 81.6436 85.3693 80.4116 85.3693C78.9696 85.3693 78.0456 84.2913 77.9616 82.5413H83.6736C83.8416 80.1753 82.4696 78.4813 80.3696 78.4813C78.4096 78.4813 76.9816 80.0913 76.9816 82.2473C76.9816 84.5853 78.3536 86.1393 80.4256 86.1393ZM80.3556 79.2373C81.7136 79.2373 82.5676 80.2173 82.6516 81.8693H77.9616C78.0876 80.2593 79.0256 79.2373 80.3556 79.2373ZM88.0546 86.1393C89.7486 86.1393 90.9946 85.1453 91.3306 83.5073H90.3646C90.1266 84.6833 89.2726 85.3693 88.0406 85.3693C86.5986 85.3693 85.6746 84.2913 85.5906 82.5413H91.3026C91.4706 80.1753 90.0986 78.4813 87.9986 78.4813C86.0386 78.4813 84.6106 80.0913 84.6106 82.2473C84.6106 84.5853 85.9826 86.1393 88.0546 86.1393ZM87.9846 79.2373C89.3426 79.2373 90.1966 80.2173 90.2806 81.8693H85.5906C85.7166 80.2593 86.6546 79.2373 87.9846 79.2373ZM93.9022 85.9993V82.4573L97.6542 85.9993H98.9282L94.8962 82.2333L98.6202 78.6213H97.4582L93.9022 82.0513V75.9473H92.9222V85.9993H93.9022Z" fill="white" fill-opacity="0.5"/>
<path d="M42.8384 138.231V135.409C38.1124 135.069 35.0864 132.315 34.9844 128.167H39.3364C39.3704 130.105 40.6284 131.329 42.8384 131.601V124.359L41.7504 124.121C37.4664 123.203 35.3244 120.823 35.3244 117.083C35.3244 113.105 38.3164 110.249 42.8384 109.773V106.883H45.4564V109.773C49.7404 110.215 52.3924 112.901 52.5284 116.981H48.3124C48.2444 115.145 47.2244 113.955 45.4564 113.581V120.891L46.6124 121.163C50.9644 122.115 52.9364 124.223 52.9364 127.827C52.9364 131.975 50.0124 134.831 45.4564 135.341V138.231H42.8384ZM42.7024 120.279L42.8384 120.313V113.547C40.7984 113.887 39.5744 115.111 39.5744 116.947C39.5744 118.749 40.5264 119.803 42.7024 120.279ZM45.6944 124.971L45.4564 124.903V131.533C47.4964 131.125 48.7204 129.935 48.7204 128.201C48.7204 126.467 47.7344 125.413 45.6944 124.971ZM62.9255 122.693H59.8995V119.871L66.2915 113.989H55.9555V110.147H71.7315V113.615L65.6795 119.191C69.4875 119.939 72.4455 122.727 72.4455 127.113C72.4455 132.213 68.4675 135.443 63.4355 135.443C58.5735 135.443 54.7995 132.451 54.7995 127.079H59.0835C59.0835 129.935 60.8515 131.567 63.5035 131.567C66.2235 131.567 68.0255 129.799 68.0255 127.045C68.0255 124.529 66.3935 122.693 62.9255 122.693ZM78.1081 135.409C76.6121 135.409 75.3541 134.185 75.3541 132.723C75.3541 131.227 76.6121 130.003 78.1081 130.003C79.6041 130.003 80.8621 131.227 80.8621 132.723C80.8621 134.185 79.6041 135.409 78.1081 135.409ZM101.874 134.967L84.6366 135.001V131.737L92.7626 124.869C96.1286 122.013 97.2506 120.381 97.2506 118.001C97.2506 115.179 95.7206 113.581 93.1026 113.581C90.3826 113.581 88.6826 115.485 88.6486 118.681H84.3306C84.3646 113.241 87.8326 109.705 93.1026 109.705C98.4066 109.705 101.704 112.731 101.704 117.763C101.704 121.231 99.8006 123.849 96.0266 127.079L91.5386 130.921H101.874V134.967ZM112.825 135.409C107.623 135.409 104.189 132.077 104.189 127.045H108.507C108.507 129.867 110.173 131.533 112.927 131.533C115.851 131.533 117.721 129.629 117.721 126.603C117.721 123.713 115.987 121.741 112.995 121.741C111.091 121.741 109.357 122.693 108.473 123.985L104.631 123.169L107.691 110.147H120.645V114.159H110.819L109.493 119.327C110.683 118.545 112.179 118.103 113.879 118.103C118.843 118.103 122.141 121.469 122.141 126.365C122.141 131.737 118.367 135.409 112.825 135.409ZM124.644 122.625C124.644 114.907 128.792 109.671 135.15 109.671C141.508 109.671 145.69 114.907 145.69 122.625C145.69 130.309 141.746 135.443 135.15 135.443C128.554 135.443 124.644 130.309 124.644 122.625ZM128.928 122.625C128.928 128.371 131.24 131.601 135.15 131.601C139.094 131.601 141.406 128.371 141.406 122.625C141.406 116.743 139.094 113.513 135.15 113.513C131.24 113.513 128.928 116.743 128.928 122.625Z" fill="white"/>
<path d="M34.9609 160.476V161.436H37.4809V163.968H38.4409V161.436H40.9609V160.476H38.4409V157.956H37.4809V160.476H34.9609ZM44.9948 160.512C46.3748 160.512 47.0948 161.208 47.0948 162.252C47.0948 163.368 46.3628 164.088 45.2348 164.088C44.1428 164.088 43.4468 163.428 43.4468 162.3H42.2828C42.2828 164.1 43.5068 165.144 45.2108 165.144C46.9748 165.144 48.2948 164.028 48.2948 162.276C48.2948 160.716 47.1788 159.72 45.7028 159.54L48.0788 157.272V156.324H42.6908V157.368H46.5908L44.1308 159.732V160.512H44.9948ZM50.1999 165.144C50.6559 165.144 51.0519 164.76 51.0519 164.304C51.0519 163.836 50.6559 163.452 50.1999 163.452C49.7319 163.452 49.3359 163.836 49.3359 164.304C49.3359 164.76 49.7319 165.144 50.1999 165.144ZM58.2683 164.988V163.896H54.2603L56.0603 162.336C57.5963 161.004 58.2083 160.128 58.2083 158.892C58.2083 157.224 57.0923 156.168 55.3523 156.168C53.5883 156.168 52.4123 157.38 52.3763 159.24H53.5523C53.5763 158.004 54.2723 157.224 55.3403 157.224C56.3843 157.224 57.0083 157.872 57.0083 158.964C57.0083 159.888 56.6123 160.476 55.2083 161.688L52.4123 164.1V165L58.2683 164.988ZM63.6466 158.376C63.6466 157.08 62.7346 156.156 61.4506 156.156C60.1786 156.156 59.2666 157.08 59.2666 158.376C59.2666 159.66 60.1786 160.584 61.4506 160.584C62.7346 160.584 63.6466 159.66 63.6466 158.376ZM68.2186 156.336H67.0666L60.4786 165H61.6306L68.2186 156.336ZM62.7226 158.376C62.7226 159.144 62.1946 159.684 61.4506 159.684C60.7066 159.684 60.1906 159.144 60.1906 158.376C60.1906 157.596 60.7066 157.056 61.4506 157.056C62.2066 157.056 62.7226 157.596 62.7226 158.376ZM69.4546 162.948C69.4546 161.652 68.5306 160.74 67.2586 160.74C65.9866 160.74 65.0626 161.652 65.0626 162.948C65.0626 164.232 65.9866 165.156 67.2586 165.156C68.5306 165.156 69.4546 164.232 69.4546 162.948ZM68.5186 162.948C68.5186 163.716 68.0026 164.256 67.2586 164.256C66.5146 164.256 65.9986 163.716 65.9986 162.948C65.9986 162.168 66.5146 161.628 67.2586 161.628C68.0146 161.628 68.5186 162.168 68.5186 162.948Z" fill="#633BE8"/>
<path d="M88.5947 155.406C87.686 154.497 86.5278 153.877 85.2667 153.625C84.0057 153.374 82.6984 153.502 81.5102 153.994C80.3221 154.486 79.3066 155.319 78.592 156.388C77.8775 157.457 77.4961 158.714 77.4961 160C77.4961 161.286 77.8775 162.543 78.592 163.612C79.3066 164.681 80.3221 165.514 81.5102 166.006C82.6984 166.498 84.0057 166.626 85.2667 166.375C86.5278 166.123 87.686 165.503 88.5947 164.594C89.1983 163.991 89.6771 163.275 90.0038 162.486C90.3305 161.698 90.4987 160.853 90.4987 160C90.4987 159.147 90.3305 158.302 90.0038 157.514C89.6771 156.725 89.1983 156.009 88.5947 155.406ZM86.251 161.25C86.251 161.383 86.1983 161.51 86.1045 161.604C86.0108 161.697 85.8836 161.75 85.751 161.75C85.6184 161.75 85.4912 161.697 85.3974 161.604C85.3037 161.51 85.251 161.383 85.251 161.25V159.456L82.6072 162.106C82.5106 162.197 82.3835 162.248 82.251 162.25C82.1182 162.249 81.9907 162.198 81.8947 162.106C81.8008 162.011 81.7482 161.883 81.7482 161.75C81.7482 161.617 81.8008 161.489 81.8947 161.394L84.5447 158.75H82.751C82.6184 158.75 82.4912 158.697 82.3974 158.604C82.3037 158.51 82.251 158.383 82.251 158.25C82.251 158.117 82.3037 157.99 82.3974 157.896C82.4912 157.803 82.6184 157.75 82.751 157.75H85.751C85.8154 157.75 85.8791 157.763 85.9385 157.788C86.0619 157.837 86.1607 157.934 86.2135 158.056C86.238 158.118 86.2507 158.184 86.251 158.25V161.25Z" fill="#633BE8"/>
</g>
</g>
</g>
<defs>
<filter id="filter0_d_1_33717" x="314" y="338" width="30" height="30" filterUnits="userSpaceOnUse" color-interpolation-filters="sRGB">
<feFlood flood-opacity="0" result="BackgroundImageFix"/>
<feColorMatrix in="SourceAlpha" type="matrix" values="0 0 0 0 0 0 0 0 0 0 0 0 0 0 0 0 0 0 127 0" result="hardAlpha"/>
<feOffset dx="2" dy="3"/>
<feGaussianBlur stdDeviation="4.5"/>
<feComposite in2="hardAlpha" operator="out"/>
<feColorMatrix type="matrix" values="0 0 0 0 0.394323 0 0 0 0 0.411155 0 0 0 0 0.470833 0 0 0 0.25 0"/>
<feBlend mode="normal" in2="BackgroundImageFix" result="effect1_dropShadow_1_33717"/>
<feBlend mode="normal" in="SourceGraphic" in2="effect1_dropShadow_1_33717" result="shape"/>
</filter>
<linearGradient id="paint0_linear_1_33717" x1="246" y1="325" x2="246" y2="485" gradientUnits="userSpaceOnUse">
<stop stop-color="#ED5EF0"/>
<stop offset="1" stop-color="#ED5EF0" stop-opacity="0"/>
</linearGradient>
<linearGradient id="paint1_linear_1_33717" x1="246" y1="395" x2="246" y2="481" gradientUnits="userSpaceOnUse">
<stop stop-color="#E8793B"/>
<stop offset="1" stop-color="#E8793B" stop-opacity="0"/>
</linearGradient>
<clipPath id="clip0_1_33717">
<rect width="492" height="556" fill="white"/>
</clipPath>
<clipPath id="clip1_1_33717">
<rect width="492" height="556" fill="white"/>
</clipPath>
<clipPath id="clip2_1_33717">
<rect width="492" height="556" fill="white"/>
</clipPath>
</defs>
</svg>
