<svg width="56" height="56" viewBox="0 0 56 56" fill="none" xmlns="http://www.w3.org/2000/svg">
<g clip-path="url(#clip0_1_34175)">
<g clip-path="url(#clip1_1_34175)">
<g clip-path="url(#clip2_1_34175)">
<g filter="url(#filter0_ii_1_34175)">
<path d="M55.8231 27.9128C55.8231 42.7853 43.7665 54.8419 28.894 54.8419C14.0214 54.8419 1.96484 42.7853 1.96484 27.9128C1.96484 13.0402 14.0214 0.983643 28.894 0.983643C43.7665 0.983643 55.8231 13.0402 55.8231 27.9128Z" fill="#071A34"/>
</g>
<path d="M41.8763 29.3251C40.403 30.1117 38.7204 30.5576 36.9335 30.5576C31.1296 30.5576 26.4246 25.8527 26.4246 20.0488C26.4246 18.2619 26.8706 16.5792 27.6573 15.106C22.4331 16.3303 18.543 21.0193 18.543 26.6168C18.543 33.1462 23.8361 38.4393 30.3655 38.4393C35.9629 38.4393 40.6519 34.5492 41.8763 29.3251Z" fill="white"/>
</g>
</g>
</g>
<defs>
<filter id="filter0_ii_1_34175" x="1.96484" y="0.983643" width="53.8594" height="56.086" filterUnits="userSpaceOnUse" color-interpolation-filters="sRGB">
<feFlood flood-opacity="0" result="BackgroundImageFix"/>
<feBlend mode="normal" in="SourceGraphic" in2="BackgroundImageFix" result="shape"/>
<feColorMatrix in="SourceAlpha" type="matrix" values="0 0 0 0 0 0 0 0 0 0 0 0 0 0 0 0 0 0 127 0" result="hardAlpha"/>
<feOffset dy="2.22787"/>
<feGaussianBlur stdDeviation="1.11394"/>
<feComposite in2="hardAlpha" operator="arithmetic" k2="-1" k3="1"/>
<feColorMatrix type="matrix" values="0 0 0 0 1 0 0 0 0 1 0 0 0 0 1 0 0 0 0.15 0"/>
<feBlend mode="normal" in2="shape" result="effect1_innerShadow_1_34175"/>
<feColorMatrix in="SourceAlpha" type="matrix" values="0 0 0 0 0 0 0 0 0 0 0 0 0 0 0 0 0 0 127 0" result="hardAlpha"/>
<feOffset/>
<feGaussianBlur stdDeviation="16.709"/>
<feComposite in2="hardAlpha" operator="arithmetic" k2="-1" k3="1"/>
<feColorMatrix type="matrix" values="0 0 0 0 1 0 0 0 0 1 0 0 0 0 1 0 0 0 0.05 0"/>
<feBlend mode="normal" in2="effect1_innerShadow_1_34175" result="effect2_innerShadow_1_34175"/>
</filter>
<clipPath id="clip0_1_34175">
<rect width="56" height="55.02" fill="white"/>
</clipPath>
<clipPath id="clip1_1_34175">
<rect width="56" height="55.02" fill="white"/>
</clipPath>
<clipPath id="clip2_1_34175">
<rect width="56" height="55.0175" fill="white" transform="translate(0 0.0012207)"/>
</clipPath>
</defs>
</svg>
