<svg width="56" height="56" viewBox="0 0 56 56" fill="none" xmlns="http://www.w3.org/2000/svg">
<g clip-path="url(#clip0_1_34134)">
<g clip-path="url(#clip1_1_34134)">
<g filter="url(#filter0_ii_1_34134)">
<path d="M40.276 0H15.1367C7.75423 0 1.76953 5.9847 1.76953 13.3672V38.5065C1.76953 45.889 7.75423 51.8737 15.1367 51.8737H40.276C47.6585 51.8737 53.6432 45.889 53.6432 38.5065V13.3672C53.6432 5.9847 47.6585 0 40.276 0Z" fill="#071A34"/>
</g>
<path d="M36.951 10.1191C38.0545 10.1191 38.9615 10.1191 39.6953 10.1889C40.4577 10.2614 41.1481 10.417 41.7759 10.8018C42.3993 11.1838 42.9234 11.7079 43.3054 12.3312C43.6902 12.9591 43.8457 13.6494 43.9183 14.4119C43.988 15.1457 43.988 16.0527 43.988 17.1562V17.2654C43.988 18.3689 43.988 19.2759 43.9183 20.0097C43.8457 20.7722 43.6902 21.4625 43.3054 22.0904C42.9234 22.7137 42.3993 23.2378 41.7759 23.6199C41.1481 24.0046 40.4577 24.1602 39.6953 24.2328C38.9615 24.3025 38.0545 24.3025 36.951 24.3025H36.8417C35.7383 24.3025 34.8313 24.3025 34.0975 24.2328C33.335 24.1602 32.6446 24.0046 32.0168 23.6199C31.3934 23.2378 30.8693 22.7137 30.4873 22.0904C30.1025 21.4625 29.947 20.7722 29.8744 20.0097C29.8047 19.2759 29.8047 18.3689 29.8047 17.2654V17.1562C29.8047 16.0527 29.8047 15.1457 29.8744 14.4119C29.947 13.6494 30.1025 12.9591 30.4873 12.3312C30.8693 11.7079 31.3934 11.1838 32.0168 10.8018C32.6446 10.417 33.335 10.2614 34.0975 10.1889C34.8313 10.1191 35.7383 10.1191 36.8417 10.1191H36.951Z" fill="white"/>
<path d="M19.0369 10.1191C20.1404 10.1191 21.0474 10.1191 21.7812 10.1889C22.5437 10.2614 23.234 10.417 23.8619 10.8018C24.4852 11.1838 25.0093 11.7079 25.3914 12.3312C25.7761 12.9591 25.9317 13.6494 26.0042 14.4119C26.074 15.1457 26.074 16.0527 26.074 17.1562V17.2654C26.074 18.3689 26.074 19.2759 26.0042 20.0097C25.9317 20.7722 25.7761 21.4625 25.3914 22.0904C25.0093 22.7137 24.4852 23.2378 23.8619 23.6199C23.234 24.0046 22.5437 24.1602 21.7812 24.2328C21.0474 24.3025 20.1404 24.3025 19.0369 24.3025H18.9277C17.8242 24.3025 16.9172 24.3025 16.1834 24.2328C15.4209 24.1602 14.7306 24.0046 14.1027 23.6199C13.4794 23.2378 12.9553 22.7137 12.5733 22.0904C12.1885 21.4625 12.0329 20.7722 11.9604 20.0097C11.8906 19.2759 11.8906 18.3689 11.8906 17.2654V17.1562C11.8906 16.0527 11.8906 15.1457 11.9604 14.4119C12.0329 13.6494 12.1885 12.9591 12.5733 12.3312C12.9553 11.7079 13.4794 11.1838 14.1027 10.8018C14.7306 10.417 15.4209 10.2614 16.1834 10.1889C16.9172 10.1191 17.8242 10.1191 18.9277 10.1191H19.0369Z" fill="white"/>
<path d="M36.951 28.0349C38.0545 28.0349 38.9615 28.0349 39.6953 28.1046C40.4577 28.1772 41.1481 28.3328 41.7759 28.7175C42.3993 29.0996 42.9234 29.6236 43.3054 30.2471C43.6902 30.8749 43.8457 31.5652 43.9183 32.3277C43.988 33.0615 43.988 33.9685 43.988 35.0719V35.1812C43.988 36.2847 43.988 37.1917 43.9183 37.9255C43.8457 38.6879 43.6902 39.3783 43.3054 40.0061C42.9234 40.6296 42.3993 41.1536 41.7759 41.5357C41.1481 41.9204 40.4577 42.076 39.6953 42.1485C38.9615 42.2183 38.0545 42.2183 36.951 42.2183H36.8417C35.7383 42.2183 34.8313 42.2183 34.0975 42.1485C33.335 42.076 32.6446 41.9204 32.0168 41.5357C31.3934 41.1536 30.8693 40.6296 30.4873 40.0061C30.1025 39.3783 29.947 38.6879 29.8744 37.9255C29.8047 37.1917 29.8047 36.2847 29.8047 35.1812V35.0721C29.8047 33.9686 29.8047 33.0615 29.8744 32.3277C29.947 31.5652 30.1025 30.8749 30.4873 30.2471C30.8693 29.6236 31.3934 29.0996 32.0168 28.7175C32.6446 28.3328 33.335 28.1772 34.0975 28.1046C34.8313 28.0349 35.7383 28.0349 36.8417 28.0349H36.951Z" fill="white"/>
<path d="M19.0369 28.0349C20.1404 28.0349 21.0474 28.0349 21.7812 28.1046C22.5437 28.1772 23.234 28.3328 23.8619 28.7175C24.4852 29.0996 25.0093 29.6236 25.3914 30.2471C25.7761 30.8749 25.9317 31.5652 26.0042 32.3277C26.074 33.0615 26.074 33.9685 26.074 35.0719V35.1812C26.074 36.2847 26.074 37.1917 26.0042 37.9255C25.9317 38.6879 25.7761 39.3783 25.3914 40.0061C25.0093 40.6296 24.4852 41.1536 23.8619 41.5357C23.234 41.9204 22.5437 42.076 21.7812 42.1485C21.0474 42.2183 20.1404 42.2183 19.0369 42.2183H18.9277C17.8242 42.2183 16.9172 42.2183 16.1834 42.1485C15.4209 42.076 14.7306 41.9204 14.1027 41.5357C13.4794 41.1536 12.9553 40.6296 12.5733 40.0061C12.1885 39.3783 12.0329 38.6879 11.9604 37.9255C11.8906 37.1917 11.8906 36.2847 11.8906 35.1812V35.0721C11.8906 33.9686 11.8906 33.0615 11.9604 32.3277C12.0329 31.5652 12.1885 30.8749 12.5733 30.2471C12.9553 29.6236 13.4794 29.0996 14.1027 28.7175C14.7306 28.3328 15.4209 28.1772 16.1834 28.1046C16.9172 28.0349 17.8242 28.0349 18.9277 28.0349H19.0369Z" fill="white"/>
</g>
</g>
<defs>
<filter id="filter0_ii_1_34134" x="1.76953" y="0" width="51.875" height="53.2105" filterUnits="userSpaceOnUse" color-interpolation-filters="sRGB">
<feFlood flood-opacity="0" result="BackgroundImageFix"/>
<feBlend mode="normal" in="SourceGraphic" in2="BackgroundImageFix" result="shape"/>
<feColorMatrix in="SourceAlpha" type="matrix" values="0 0 0 0 0 0 0 0 0 0 0 0 0 0 0 0 0 0 127 0" result="hardAlpha"/>
<feOffset dy="1.33672"/>
<feGaussianBlur stdDeviation="0.66836"/>
<feComposite in2="hardAlpha" operator="arithmetic" k2="-1" k3="1"/>
<feColorMatrix type="matrix" values="0 0 0 0 1 0 0 0 0 1 0 0 0 0 1 0 0 0 0.15 0"/>
<feBlend mode="normal" in2="shape" result="effect1_innerShadow_1_34134"/>
<feColorMatrix in="SourceAlpha" type="matrix" values="0 0 0 0 0 0 0 0 0 0 0 0 0 0 0 0 0 0 127 0" result="hardAlpha"/>
<feOffset/>
<feGaussianBlur stdDeviation="10.0254"/>
<feComposite in2="hardAlpha" operator="arithmetic" k2="-1" k3="1"/>
<feColorMatrix type="matrix" values="0 0 0 0 1 0 0 0 0 1 0 0 0 0 1 0 0 0 0.05 0"/>
<feBlend mode="normal" in2="effect1_innerShadow_1_34134" result="effect2_innerShadow_1_34134"/>
</filter>
<clipPath id="clip0_1_34134">
<rect width="56" height="56" fill="white"/>
</clipPath>
<clipPath id="clip1_1_34134">
<rect width="56" height="56" fill="white"/>
</clipPath>
</defs>
</svg>
