<svg width="56" height="56" viewBox="0 0 56 56" fill="none" xmlns="http://www.w3.org/2000/svg">
<g clip-path="url(#clip0_1_34161)">
<g clip-path="url(#clip1_1_34161)">
<g filter="url(#filter0_ii_1_34161)">
<path d="M40.8659 0H15.7266C8.34407 0 2.35938 5.9847 2.35938 13.3672V38.5065C2.35938 45.889 8.34407 51.8737 15.7266 51.8737H40.8659C48.2484 51.8737 54.2331 45.889 54.2331 38.5065V13.3672C54.2331 5.9847 48.2484 0 40.8659 0Z" fill="#071A34"/>
</g>
<g filter="url(#filter1_i_1_34161)">
<path d="M42.7386 14.1471C44.2036 14.1471 45.3912 12.9594 45.3912 11.4944C45.3912 10.0294 44.2036 8.8418 42.7386 8.8418C41.2736 8.8418 40.0859 10.0294 40.0859 11.4944C40.0859 12.9594 41.2736 14.1471 42.7386 14.1471Z" fill="white"/>
</g>
<g filter="url(#filter2_i_1_34161)">
<path d="M28 18.3164C32.4814 18.3165 35.916 21.8366 35.916 25.9375C35.916 30.0384 32.4814 33.5595 28 33.5596C23.5185 33.5596 20.084 30.0384 20.084 25.9375C20.084 21.8365 23.5185 18.3164 28 18.3164Z" fill="#0A1C36" stroke="white" stroke-width="5.34688"/>
</g>
</g>
</g>
<defs>
<filter id="filter0_ii_1_34161" x="2.35938" y="0" width="51.875" height="53.2105" filterUnits="userSpaceOnUse" color-interpolation-filters="sRGB">
<feFlood flood-opacity="0" result="BackgroundImageFix"/>
<feBlend mode="normal" in="SourceGraphic" in2="BackgroundImageFix" result="shape"/>
<feColorMatrix in="SourceAlpha" type="matrix" values="0 0 0 0 0 0 0 0 0 0 0 0 0 0 0 0 0 0 127 0" result="hardAlpha"/>
<feOffset dy="1.33672"/>
<feGaussianBlur stdDeviation="0.66836"/>
<feComposite in2="hardAlpha" operator="arithmetic" k2="-1" k3="1"/>
<feColorMatrix type="matrix" values="0 0 0 0 1 0 0 0 0 1 0 0 0 0 1 0 0 0 0.15 0"/>
<feBlend mode="normal" in2="shape" result="effect1_innerShadow_1_34161"/>
<feColorMatrix in="SourceAlpha" type="matrix" values="0 0 0 0 0 0 0 0 0 0 0 0 0 0 0 0 0 0 127 0" result="hardAlpha"/>
<feOffset/>
<feGaussianBlur stdDeviation="10.0254"/>
<feComposite in2="hardAlpha" operator="arithmetic" k2="-1" k3="1"/>
<feColorMatrix type="matrix" values="0 0 0 0 1 0 0 0 0 1 0 0 0 0 1 0 0 0 0.05 0"/>
<feBlend mode="normal" in2="effect1_innerShadow_1_34161" result="effect2_innerShadow_1_34161"/>
</filter>
<filter id="filter1_i_1_34161" x="40.0859" y="8.8418" width="5.30469" height="6.6419" filterUnits="userSpaceOnUse" color-interpolation-filters="sRGB">
<feFlood flood-opacity="0" result="BackgroundImageFix"/>
<feBlend mode="normal" in="SourceGraphic" in2="BackgroundImageFix" result="shape"/>
<feColorMatrix in="SourceAlpha" type="matrix" values="0 0 0 0 0 0 0 0 0 0 0 0 0 0 0 0 0 0 127 0" result="hardAlpha"/>
<feOffset dy="1.33672"/>
<feGaussianBlur stdDeviation="0.66836"/>
<feComposite in2="hardAlpha" operator="arithmetic" k2="-1" k3="1"/>
<feColorMatrix type="matrix" values="0 0 0 0 1 0 0 0 0 1 0 0 0 0 1 0 0 0 0.15 0"/>
<feBlend mode="normal" in2="shape" result="effect1_innerShadow_1_34161"/>
</filter>
<filter id="filter2_i_1_34161" x="17.4102" y="15.6426" width="21.1797" height="21.9268" filterUnits="userSpaceOnUse" color-interpolation-filters="sRGB">
<feFlood flood-opacity="0" result="BackgroundImageFix"/>
<feBlend mode="normal" in="SourceGraphic" in2="BackgroundImageFix" result="shape"/>
<feColorMatrix in="SourceAlpha" type="matrix" values="0 0 0 0 0 0 0 0 0 0 0 0 0 0 0 0 0 0 127 0" result="hardAlpha"/>
<feOffset dy="1.33672"/>
<feGaussianBlur stdDeviation="0.66836"/>
<feComposite in2="hardAlpha" operator="arithmetic" k2="-1" k3="1"/>
<feColorMatrix type="matrix" values="0 0 0 0 1 0 0 0 0 1 0 0 0 0 1 0 0 0 0.15 0"/>
<feBlend mode="normal" in2="shape" result="effect1_innerShadow_1_34161"/>
</filter>
<clipPath id="clip0_1_34161">
<rect width="56" height="56" fill="white"/>
</clipPath>
<clipPath id="clip1_1_34161">
<rect width="56" height="56" fill="white"/>
</clipPath>
</defs>
</svg>
