<svg width="122" height="34" viewBox="0 0 122 34" fill="none" xmlns="http://www.w3.org/2000/svg">
<g clip-path="url(#clip0_1_33845)">
<path d="M16.8447 0C13.5131 0 10.2564 0.980199 7.48629 2.81665C4.71622 4.6531 2.55715 7.26331 1.28223 10.3172C0.00729787 13.3711 -0.326281 16.7316 0.323672 19.9736C0.973629 23.2156 2.57794 26.1935 4.93369 28.5307C7.28946 30.8681 10.2909 32.46 13.5585 33.105C16.826 33.7498 20.2129 33.4188 23.2909 32.154C26.3689 30.8888 28.9994 28.7467 30.8505 25.9983C32.7014 23.2498 33.6893 20.0185 33.6893 16.713C33.6893 12.2804 31.9147 8.02941 28.7556 4.89513C25.5966 1.76083 21.3122 0 16.8447 0ZM27.192 19.1555C27.192 19.4898 25.6712 19.5375 25.6712 19.8718C25.6712 20.206 27.1753 20.6597 27.1753 21.1205C27.1753 21.6839 24.0758 21.7674 24.0758 22.331C24.0758 22.9327 26.4268 22.7464 26.4268 23.3983C26.4268 24.167 20.5216 23.8089 20.5216 24.6087C20.5216 24.9142 21.2773 25.0409 22.223 25.1412C22.7428 25.1984 22.6295 25.4515 22.3337 25.6188C20.6805 26.6195 18.7813 27.149 16.8447 27.149C14.908 27.149 13.0089 26.6195 11.3557 25.6188C11.0621 25.4397 10.9466 25.1866 11.4664 25.1412C12.4121 25.0409 13.1701 24.9024 13.1701 24.6087C13.1701 23.8089 7.26245 24.167 7.26245 23.3983C7.26245 22.7464 9.61592 22.9207 9.61592 22.331C9.61592 21.7674 6.51411 21.6839 6.51411 21.1205C6.51411 20.6597 8.02052 20.2132 8.02052 19.8718C8.02052 19.5303 6.49725 19.4921 6.49725 19.1555C6.49725 18.8189 7.60902 18.6016 7.60902 18.3628C7.60902 17.9116 6.31676 18.7329 6.31676 16.713C6.31676 13.9427 7.426 11.2858 9.40035 9.32684C11.3747 7.3679 14.0525 6.26737 16.8447 6.26737C19.6368 6.26737 22.3147 7.3679 24.2891 9.32684C26.2634 11.2858 27.3725 13.9427 27.3725 16.713C27.3725 18.7329 26.0804 17.9068 26.0804 18.3628C26.0804 18.6016 27.192 18.795 27.192 19.1555Z" fill="black"/>
<path d="M48.2741 24.8268C49.3265 24.8268 50.267 24.6506 51.0957 24.2982C51.9378 23.9459 52.6481 23.4824 53.227 22.9083C53.8056 22.3208 54.2201 21.6814 54.47 20.9895L52.0628 19.8736C51.7732 20.6045 51.2998 21.2115 50.642 21.6943C49.9973 22.1641 49.2081 22.3992 48.2741 22.3992C47.3532 22.3992 46.5443 22.1838 45.847 21.7531C45.1499 21.3224 44.6038 20.7286 44.2092 19.9715C43.8146 19.2014 43.6174 18.3073 43.6174 17.2893C43.6174 16.2712 43.8146 15.3837 44.2092 14.6267C44.6038 13.8566 45.1499 13.2627 45.847 12.8451C46.5443 12.4143 47.3532 12.199 48.2741 12.199C49.2081 12.199 49.9973 12.4404 50.642 12.9234C51.2998 13.3932 51.7732 13.9936 52.0628 14.7246L54.47 13.6086C54.2201 12.9169 53.8056 12.2838 53.227 11.7095C52.6481 11.1222 51.9378 10.6523 51.0957 10.2999C50.267 9.9475 49.3265 9.7713 48.2741 9.7713C47.2218 9.7713 46.2483 9.96056 45.3538 10.3391C44.4593 10.7045 43.683 11.2266 43.0254 11.9053C42.3675 12.571 41.8544 13.3672 41.4861 14.2938C41.1178 15.2075 40.9336 16.206 40.9336 17.2893C40.9336 18.3726 41.1178 19.3776 41.4861 20.3043C41.8544 21.218 42.3675 22.0141 43.0254 22.6929C43.683 23.3715 44.4593 23.9003 45.3538 24.2787C46.2483 24.6442 47.2218 24.8268 48.2741 24.8268Z" fill="black"/>
<path d="M56.4297 24.5919H59.0147V9.7713H56.4297V24.5919Z" fill="black"/>
<path d="M64.6588 24.8267C66.0533 24.8267 67.1713 24.3701 68.0132 23.4565V24.5919H70.4601V17.5046C70.4601 16.7607 70.2694 16.1015 69.8879 15.5272C69.5062 14.9529 68.9802 14.5092 68.3092 14.1959C67.6516 13.8696 66.882 13.7065 66.0006 13.7065C64.9218 13.7065 63.9615 13.961 63.1196 14.47C62.2777 14.9791 61.6989 15.6512 61.3832 16.4866L63.4946 17.5046C63.6918 17.0217 64.001 16.6367 64.4219 16.3495C64.8429 16.0493 65.3363 15.8992 65.9018 15.8992C66.4938 15.8992 66.9674 16.0559 67.3226 16.3691C67.6909 16.6693 67.8751 17.0478 67.8751 17.5046V17.857L64.6785 18.3661C63.4156 18.5749 62.4816 18.973 61.8764 19.5603C61.2715 20.1477 60.9688 20.8851 60.9688 21.7726C60.9688 22.7124 61.3043 23.4565 61.9753 24.0045C62.646 24.5527 63.5406 24.8267 64.6588 24.8267ZM63.6523 21.6748C63.6523 20.9309 64.1589 20.4609 65.1717 20.2652L67.8751 19.8149V20.2456C67.8751 20.9765 67.6186 21.5964 67.1055 22.1055C66.6056 22.6145 65.948 22.8691 65.1324 22.8691C64.6983 22.8691 64.343 22.7646 64.0668 22.5559C63.7906 22.3339 63.6523 22.0402 63.6523 21.6748Z" fill="black"/>
<path d="M72.8477 24.5919H75.4326V18.6598C75.4326 17.8506 75.6564 17.224 76.1036 16.7803C76.5641 16.3235 77.1559 16.095 77.8795 16.095H78.8068V13.824H78.1755C77.5177 13.824 76.9388 13.9415 76.4389 14.1764C75.9392 14.4113 75.5511 14.8355 75.2747 15.449V13.9415H72.8477V24.5919Z" fill="black"/>
<path d="M80.2305 12.7471H82.8155V10.0062H80.2305V12.7471ZM80.2305 24.5919H82.8155V13.9414H80.2305V24.5919Z" fill="black"/>
<path d="M90.0929 24.7094C90.527 24.7094 90.9546 24.6767 91.3755 24.6114V22.3992C91.1255 22.4383 90.8953 22.4578 90.6849 22.4578C90.0534 22.4578 89.593 22.3144 89.3036 22.0271C89.0141 21.7401 88.8695 21.3288 88.8695 20.7936V16.2321H91.336V13.9414H88.8695V11.5137H86.2845V12.336C86.2845 12.8581 86.1398 13.2562 85.8504 13.5303C85.5611 13.8044 85.1531 13.9414 84.6271 13.9414H84.4297V16.2321H86.2845V20.9309C86.2845 22.1185 86.6134 23.0452 87.2712 23.7108C87.942 24.3765 88.8827 24.7094 90.0929 24.7094Z" fill="black"/>
<path d="M94.6561 28.9187C95.6689 28.9187 96.5108 28.6314 97.1818 28.0573C97.8658 27.496 98.4118 26.6998 98.8196 25.6687L103.496 13.9414H100.694L97.9316 21.2832L95.1494 13.9414H92.3672L96.6096 24.5919L96.3727 25.1596C96.1623 25.6034 95.919 25.9624 95.6426 26.2364C95.3796 26.5106 94.952 26.6476 94.3601 26.6476C94.1496 26.6476 93.926 26.6279 93.6891 26.5889C93.4524 26.5628 93.2419 26.5237 93.0578 26.4714V28.625C93.2814 28.7294 93.5312 28.8012 93.8076 28.8403C94.0838 28.8926 94.3666 28.9187 94.6561 28.9187Z" fill="black"/>
</g>
<defs>
<clipPath id="clip0_1_33845">
<rect width="122" height="33.578" fill="white"/>
</clipPath>
</defs>
</svg>
