<svg width="200" height="72" viewBox="0 0 200 72" fill="none" xmlns="http://www.w3.org/2000/svg">
<g clip-path="url(#clip0_1_33952)">
<g clip-path="url(#clip1_1_33952)">
<g clip-path="url(#clip2_1_33952)">
<mask id="mask0_1_33952" style="mask-type:luminance" maskUnits="userSpaceOnUse" x="0" y="0" width="200" height="72">
<path d="M200 0H0V72H200V0Z" fill="white"/>
</mask>
<g mask="url(#mask0_1_33952)">
<path d="M82.3609 47.5818C81.8646 47.1564 81.5798 46.7106 81.5535 46.2423L82.3609 47.5818ZM82.3609 47.5818L82.3634 47.5839C82.903 48.0255 83.6633 48.2361 84.6241 48.2361H86.7269H86.8674V48.0956V47.8199V47.6794H86.7269H85.6709L85.3043 47.6127L85.2977 47.6114L85.2906 47.611C85.072 47.5927 84.8289 47.4446 84.5645 47.1156C84.336 46.7803 84.2129 46.2969 84.2129 45.648V34.858C84.2129 33.7074 83.9189 32.7546 83.3201 32.0118L83.3184 32.0096C82.9264 31.5441 82.3117 31.2 81.4934 30.9659C80.6931 30.7073 79.6547 30.5806 78.3844 30.5806C77.0849 30.5806 75.8934 31.0303 74.8137 31.9222C73.9504 32.6168 73.3011 33.3611 72.8715 34.1561V30.8591V30.7185H72.7306H70.3176H70.1771V30.8591V48.0956V48.2361H70.3176H72.7306H72.8715V48.0956V35.8577C72.8715 34.9968 73.4229 33.9973 74.5872 32.8555L74.5885 32.8545C75.7379 31.7052 77.0244 31.1376 78.4532 31.1376C79.1501 31.1376 79.7243 31.2498 80.1823 31.4672C81.0514 31.9354 81.5189 33.024 81.5189 34.8235V45.648V45.6522V45.6563L81.5535 46.2423L82.3609 47.5818ZM68.0039 25.5435L68.1336 25.5933L68.1849 25.4645L68.3229 25.1198L68.3784 24.9813L68.237 24.9342C65.8795 24.1484 63.5549 23.7549 61.2632 23.7549C58.9916 23.7549 57.2622 24.2877 56.0999 25.3782C54.9422 26.4417 54.3658 27.8366 54.3658 29.5491C54.3658 31.7098 55.2621 33.3858 57.0482 34.5613C57.8364 35.0943 58.7047 35.5804 59.6526 36.0198L59.6556 36.0209C60.5981 36.4348 61.5293 36.8372 62.4493 37.2281L62.4506 37.2286C63.3872 37.6172 64.2434 38.0395 65.0183 38.4954C66.7277 39.5075 67.5693 40.9005 67.5693 42.6833C67.5693 44.3164 66.9241 45.5462 65.6334 46.392C64.3506 47.2248 62.7925 47.6448 60.953 47.6448C59.7035 47.6448 58.4766 47.4634 57.2722 47.0997C56.089 46.7127 55.1286 46.2256 54.3867 45.6409L54.2637 45.5442L54.1803 45.6772L54.008 45.9529L53.9375 46.0659L54.0464 46.1426C56.0732 47.5635 58.5158 48.2708 61.3667 48.2708C62.8935 48.2708 64.2297 48.0973 65.3723 47.7474L65.374 47.747C66.5513 47.3704 67.551 46.6635 68.3713 45.6322C69.1974 44.5937 69.6086 43.3439 69.6086 41.8905C69.6086 40.4287 69.3651 39.2207 68.8688 38.2749C68.3767 37.3146 67.7299 36.5603 66.9266 36.017C66.1376 35.4833 65.2685 35.0082 64.3189 34.5914C63.3739 34.1764 62.4285 33.8075 61.483 33.4846C60.5689 33.1417 59.7244 32.7764 58.9487 32.3887C57.2392 31.4886 56.4052 30.2331 56.4052 28.6183C56.4052 27.2802 56.9044 26.2429 57.9007 25.49C58.902 24.7333 60.3045 24.3463 62.1253 24.3463C63.9661 24.3463 65.9258 24.7441 68.0039 25.5435ZM87.6039 33.0004C86.0083 34.6194 85.2188 36.8891 85.2188 39.7877C85.2188 42.6837 85.9837 44.8544 87.5401 46.2694C89.0873 47.6756 91.0878 48.3742 93.5296 48.3742C95.9989 48.3742 98.0357 47.5689 99.6276 45.9541C101.246 44.3352 102.047 42.066 102.047 39.1672C102.047 36.2711 101.283 34.1004 99.726 32.6855C98.1783 31.2788 96.1661 30.5806 93.7018 30.5806C91.2547 30.5806 89.2182 31.3861 87.6039 33.0004ZM89.5398 33.4252L89.5406 33.4244C90.6666 31.8931 92.0741 31.1376 93.7707 31.1376C95.4759 31.1376 96.8367 31.7855 97.8664 33.0838C98.8948 34.3805 99.4215 36.3994 99.4215 39.1672C99.4215 41.9069 98.8506 44.0341 97.7259 45.5642C96.6003 47.0726 95.1923 47.8174 93.495 47.8174C91.7901 47.8174 90.4289 47.1694 89.3992 45.8711C88.3708 44.5741 87.8441 42.5665 87.8441 39.8221C87.8441 37.0585 88.4154 34.932 89.5398 33.4252ZM125.535 30.9665L125.432 31.0692L125.538 31.1685C125.869 31.4788 126.046 31.942 126.046 32.5827C126.046 33.2296 125.912 33.7791 125.65 34.2366L125.648 34.2419L125.645 34.2475L120.788 44.7643L115.631 30.8104L115.597 30.7185H115.5H113.086H112.885L112.955 30.9074L114.209 34.3348L109.412 44.7639L104.255 30.8104L104.221 30.7185H104.123H101.709H101.507L101.579 30.9081L107.99 48.1448L108.025 48.2361H108.122H108.466H108.557L108.595 48.154L114.52 35.1228L119.367 48.1448L119.4 48.2361H119.499H119.842H119.934L119.971 48.154L126.245 34.3647L126.247 34.3618C126.529 33.703 126.671 33.0522 126.671 32.4104C126.671 32.2386 126.647 32.0573 126.6 31.8672C126.571 31.6556 126.467 31.4313 126.303 31.1962C126.233 31.0797 126.167 30.9826 126.104 30.9069C126.042 30.8326 125.976 30.7692 125.904 30.7333L125.813 30.688L125.742 30.7596L125.535 30.9665Z" fill="#2C2C2C"/>
<path d="M82.3609 47.5818C81.8646 47.1564 81.5798 46.7106 81.5535 46.2423M82.3609 47.5818L81.5535 46.2423M82.3609 47.5818L82.3634 47.5839C82.903 48.0255 83.6633 48.2361 84.6241 48.2361H86.7269H86.8674V48.0956V47.8199V47.6794H86.7269H85.6709L85.3043 47.6127L85.2977 47.6114L85.2906 47.611C85.072 47.5927 84.8289 47.4446 84.5645 47.1156C84.336 46.7803 84.2129 46.2969 84.2129 45.648V34.858C84.2129 33.7074 83.9189 32.7546 83.3201 32.0118L83.3184 32.0096C82.9264 31.5441 82.3117 31.2 81.4934 30.9659C80.6931 30.7073 79.6547 30.5806 78.3844 30.5806C77.0849 30.5806 75.8934 31.0303 74.8137 31.9222C73.9504 32.6168 73.3011 33.3611 72.8715 34.1561V30.8591V30.7185H72.7306H70.3176H70.1771V30.8591V48.0956V48.2361H70.3176H72.7306H72.8715V48.0956V35.8577C72.8715 34.9968 73.4229 33.9973 74.5872 32.8555L74.5885 32.8545C75.7379 31.7052 77.0244 31.1376 78.4532 31.1376C79.1501 31.1376 79.7243 31.2498 80.1823 31.4672C81.0514 31.9354 81.5189 33.024 81.5189 34.8235V45.648V45.6522V45.6563L81.5535 46.2423M68.0039 25.5435L68.1336 25.5933L68.1849 25.4645L68.3229 25.1198L68.3784 24.9813L68.237 24.9342C65.8795 24.1484 63.5549 23.7549 61.2632 23.7549C58.9916 23.7549 57.2622 24.2877 56.0999 25.3782C54.9422 26.4417 54.3658 27.8366 54.3658 29.5491C54.3658 31.7098 55.2621 33.3858 57.0482 34.5613C57.8364 35.0943 58.7047 35.5804 59.6526 36.0198L59.6556 36.0209C60.5981 36.4348 61.5293 36.8372 62.4493 37.2281L62.4506 37.2286C63.3872 37.6172 64.2434 38.0395 65.0183 38.4954C66.7277 39.5075 67.5693 40.9005 67.5693 42.6833C67.5693 44.3164 66.9241 45.5462 65.6334 46.392C64.3506 47.2248 62.7925 47.6448 60.953 47.6448C59.7035 47.6448 58.4766 47.4634 57.2722 47.0997C56.089 46.7127 55.1286 46.2256 54.3867 45.6409L54.2637 45.5442L54.1803 45.6772L54.008 45.9529L53.9375 46.0659L54.0464 46.1426C56.0732 47.5635 58.5158 48.2708 61.3667 48.2708C62.8935 48.2708 64.2297 48.0973 65.3723 47.7474L65.374 47.747C66.5513 47.3704 67.551 46.6635 68.3713 45.6322C69.1974 44.5937 69.6086 43.3439 69.6086 41.8905C69.6086 40.4287 69.3651 39.2207 68.8688 38.2749C68.3767 37.3146 67.7299 36.5603 66.9266 36.017C66.1376 35.4833 65.2685 35.0082 64.3189 34.5914C63.3739 34.1764 62.4285 33.8075 61.483 33.4846C60.5689 33.1417 59.7244 32.7764 58.9487 32.3887C57.2392 31.4886 56.4052 30.2331 56.4052 28.6183C56.4052 27.2802 56.9044 26.2429 57.9007 25.49C58.902 24.7333 60.3045 24.3463 62.1253 24.3463C63.9661 24.3463 65.9258 24.7441 68.0039 25.5435ZM87.6039 33.0004C86.0083 34.6194 85.2188 36.8891 85.2188 39.7877C85.2188 42.6837 85.9837 44.8544 87.5401 46.2694C89.0873 47.6756 91.0878 48.3742 93.5296 48.3742C95.9989 48.3742 98.0357 47.5689 99.6276 45.9541C101.246 44.3352 102.047 42.066 102.047 39.1672C102.047 36.2711 101.283 34.1004 99.726 32.6855C98.1783 31.2788 96.1661 30.5806 93.7018 30.5806C91.2547 30.5806 89.2182 31.3861 87.6039 33.0004ZM89.5398 33.4252L89.5406 33.4244C90.6666 31.8931 92.0741 31.1376 93.7707 31.1376C95.4759 31.1376 96.8367 31.7855 97.8664 33.0838C98.8948 34.3805 99.4215 36.3994 99.4215 39.1672C99.4215 41.9069 98.8506 44.0341 97.7259 45.5642C96.6003 47.0726 95.1923 47.8174 93.495 47.8174C91.7901 47.8174 90.4289 47.1694 89.3992 45.8711C88.3708 44.5741 87.8441 42.5665 87.8441 39.8221C87.8441 37.0585 88.4154 34.932 89.5398 33.4252ZM125.535 30.9665L125.432 31.0692L125.538 31.1685C125.869 31.4788 126.046 31.942 126.046 32.5827C126.046 33.2296 125.912 33.7791 125.65 34.2366L125.648 34.2419L125.645 34.2475L120.788 44.7643L115.631 30.8104L115.597 30.7185H115.5H113.086H112.885L112.955 30.9074L114.209 34.3348L109.412 44.7639L104.255 30.8104L104.221 30.7185H104.123H101.709H101.507L101.579 30.9081L107.99 48.1448L108.025 48.2361H108.122H108.466H108.557L108.595 48.154L114.52 35.1228L119.367 48.1448L119.4 48.2361H119.499H119.842H119.934L119.971 48.154L126.245 34.3647L126.247 34.3618C126.529 33.703 126.671 33.0522 126.671 32.4104C126.671 32.2386 126.647 32.0573 126.6 31.8672C126.571 31.6556 126.467 31.4313 126.303 31.1962C126.233 31.0797 126.167 30.9826 126.104 30.9069C126.042 30.8326 125.976 30.7692 125.904 30.7333L125.813 30.688L125.742 30.7596L125.535 30.9665Z" stroke="#2C2C2C" stroke-width="0.281209"/>
<path d="M132.007 24.2134C132.654 23.2217 133.704 22.4535 135.16 22.3855L134.856 45.8876V45.8893C134.856 46.102 134.922 46.3305 135.043 46.5728C135.609 47.7051 136.959 48.2359 138.995 48.2359H140.064H140.205V48.0954V47.8197V47.6792H140.064H139.008L138.641 47.6125L138.635 47.6112L138.628 47.6108C138.409 47.5925 138.166 47.4444 137.902 47.1154C137.673 46.7801 137.55 46.2967 137.55 45.6478V22.275V22.1367L137.412 22.1344L135.305 22.1L135.164 22.0977V22.1018C132.805 22.1443 131.06 22.699 129.964 23.7953C128.844 24.8919 128.302 26.7198 128.302 29.2386V30.7183H127.719H127.578V30.8589V31.4159V31.5565H127.719H128.302V48.0954V48.2359H128.443H130.856H130.996V48.0954V31.5565H133.579H133.719V31.4159V30.8589V30.7183H133.579H130.996V29.2386C130.996 26.878 131.341 25.2128 132.007 24.2146V24.2134ZM150.364 39.6688C149.894 39.6311 149.378 39.6124 148.816 39.6124C148.191 39.6124 147.509 39.6471 146.771 39.7162C145.284 39.8085 144.054 39.9817 143.083 40.2375C142.114 40.4929 141.39 40.834 140.928 41.2712C140.484 41.6918 140.198 42.0929 140.096 42.4746C140.001 42.829 139.953 43.1631 139.953 43.4763C139.953 43.7594 139.977 44.0426 140.024 44.3254C140.223 45.6603 140.745 46.6787 141.601 47.361C142.455 48.042 143.625 48.374 145.092 48.374C146.353 48.374 147.45 48.1142 148.377 47.5887C149.168 47.14 149.83 46.5011 150.364 45.6753V45.8893C150.364 46.3188 150.667 46.7905 151.198 47.2989C151.816 47.9386 152.935 48.2359 154.504 48.2359H155.572H155.713V48.0954V47.8197V47.6792H155.572H154.516L154.15 47.6125L154.143 47.6112L154.136 47.6108C153.917 47.5925 153.675 47.4444 153.41 47.1154C153.181 46.7801 153.058 46.2967 153.058 45.6478V34.0994C153.058 33.3222 152.742 32.5892 152.127 31.9029C151.723 31.4506 151.115 31.1211 150.318 30.9042C149.52 30.6872 148.524 30.5804 147.333 30.5804C145.197 30.5804 143.097 31.0565 141.035 32.0067L140.895 32.0709L140.972 32.2042L141.109 32.4455L141.179 32.567L141.301 32.4981C141.813 32.2084 142.627 31.9133 143.75 31.6153L143.751 31.6148C144.893 31.2952 145.879 31.1374 146.713 31.1374C147.552 31.1374 148.221 31.2511 148.725 31.4705L148.73 31.4725C149.246 31.6744 149.584 31.9138 149.769 32.18C149.969 32.4692 150.124 32.7685 150.235 33.078L150.237 33.0839L150.239 33.0896C150.371 33.374 150.404 33.5929 150.368 33.7569C150.344 33.8516 150.33 33.936 150.33 34.0046C150.33 34.039 150.333 34.0779 150.347 34.1151C150.351 34.1271 150.357 34.1396 150.364 34.152V39.6688ZM142.716 44.2916V44.2895C142.693 44.063 142.682 43.8612 142.682 43.6831C142.682 42.6964 142.94 41.9411 143.438 41.3995C143.68 41.1363 144.072 40.9048 144.63 40.7133C145.186 40.5224 145.896 40.3746 146.763 40.2719C147.378 40.2036 147.994 40.1694 148.609 40.1694C149.204 40.1694 149.789 40.1891 150.364 40.2287V44.2628C150.298 44.988 149.803 45.7708 148.827 46.6099C147.887 47.4165 146.827 47.8172 145.644 47.8172C144.759 47.8172 144.086 47.5257 143.606 46.9535C143.121 46.3759 142.818 45.4952 142.716 44.2916ZM158.644 22.2405V22.1H158.503H156.09H155.95V22.2405V48.0954V48.2359H156.09H158.503H158.644V48.0954V39.8401L159.42 38.9486L165.695 48.1746L165.737 48.2359H165.812H168.225H168.49L168.341 48.0166L160.991 37.2133L166.538 30.9521L166.745 30.7183H166.432H166.088H166.025L165.982 30.7656L158.644 39.0379V22.2405ZM181.747 46.8681L181.693 46.7438L181.567 46.7922C179.793 47.4744 177.765 47.8172 175.481 47.8172C173.895 47.8172 172.615 47.1725 171.629 45.8738C170.668 44.5768 170.175 42.5227 170.175 39.684C170.175 39.0671 170.205 38.4705 170.264 37.8942H182.445H182.585V37.7535V37.7522V37.7509V37.7495V37.7482V37.7468V37.7454V37.7441V37.7428V37.7414V37.7401V37.7387V37.7374V37.736V37.7347V37.7333V37.732V37.7306V37.7293V37.728V37.7266V37.7253V37.7239V37.7226V37.7212V37.7199V37.7185V37.7172V37.7158V37.7145V37.7131V37.7118V37.7105V37.7091V37.7077V37.7064V37.7051V37.7037V37.7024V37.701V37.6997V37.6983V37.697V37.6956V37.6943V37.6929V37.6916V37.6903V37.6889V37.6876V37.6862V37.6848V37.6835V37.6822V37.6808V37.6795V37.6781V37.6768V37.6754V37.6741V37.6728V37.6714V37.67V37.6687V37.6674V37.666V37.6647V37.6633V37.6619V37.6606V37.6593V37.6579V37.6566V37.6552V37.6539V37.6525V37.6512V37.6499V37.6485V37.6471V37.6458V37.6445V37.6431V37.6418V37.6404V37.6391V37.6377V37.6364V37.635V37.6337V37.6323V37.631V37.6297V37.6283V37.627V37.6256V37.6242V37.6229V37.6216V37.6202V37.6189V37.6175V37.6162V37.6148V37.6135V37.6122V37.6108V37.6094V37.6081V37.6068V37.6054V37.6041V37.6027V37.6014V37.6V37.5987V37.5973V37.596V37.5946V37.5933V37.5919V37.5906V37.5893V37.5879V37.5865V37.5852V37.5839V37.5825V37.5812V37.5798V37.5785V37.5771V37.5758V37.5745V37.5731V37.5717V37.5704V37.569V37.5677V37.5664V37.565V37.5637V37.5623V37.561V37.5596V37.5583V37.5569V37.5556V37.5542V37.5529V37.5516V37.5502V37.5488V37.5475V37.5462V37.5448V37.5435V37.5421V37.5408V37.5394V37.5381V37.5368V37.5354V37.534V37.5327V37.5313V37.53V37.5287V37.5273V37.526V37.5246V37.5233V37.5219V37.5206V37.5192V37.5179V37.5165V37.5152V37.5139V37.5125V37.5111V37.5098V37.5084V37.5071V37.5058V37.5044V37.5031V37.5017V37.5004V37.499V37.4977V37.4963V37.495V37.4936V37.4923V37.491V37.4896V37.4883V37.4869V37.4856V37.4842V37.4829V37.4815V37.4802V37.4788V37.4775V37.4762V37.4748V37.4734V37.4721V37.4707V37.4694V37.4681V37.4667V37.4654V37.464V37.4627V37.4613V37.46V37.4586V37.4573V37.4559V37.4546V37.4533V37.4519V37.4506V37.4492V37.4478V37.4465V37.4452V37.4438V37.4425V37.4411V37.4398V37.4384V37.4371V37.4357V37.4344V37.433V37.4317V37.4304V37.429V37.4277V37.4263V37.4249V37.4236V37.4223V37.4209V37.4196V37.4182V37.4169V37.4155V37.4142V37.4129V37.4115V37.4101V37.4088C182.585 35.1745 181.933 33.4645 180.607 32.3044C179.291 31.1535 177.672 30.5804 175.757 30.5804C173.377 30.5804 171.409 31.3869 169.864 33.0024C168.315 34.6217 167.549 36.8901 167.549 39.7875C167.549 42.6818 168.279 44.8517 169.765 46.2667C171.243 47.6746 173.153 48.374 175.481 48.374C177.817 48.374 179.914 48.0157 181.772 47.2959L181.907 47.2434L181.85 47.1095L181.747 46.8681ZM178.714 32.6692C179.496 33.6686 179.918 35.2166 179.958 37.3372H170.334C170.619 35.4102 171.247 33.9063 172.208 32.8139C173.22 31.689 174.356 31.1374 175.619 31.1374C176.884 31.1374 177.913 31.6451 178.714 32.6692Z" fill="#2C2C2C" stroke="#2C2C2C" stroke-width="0.281209"/>
<path d="M185.628 21.8789V22.7896H184.593V25.5605H183.61V22.7896H182.574V21.8789H185.628Z" fill="#2C2C2C"/>
<path d="M189.665 21.8232V25.5766H188.682V23.7551L187.962 24.6107H187.668L186.948 23.7551V25.5766H185.965V21.8232H186.312L187.815 23.424L189.318 21.8232H189.665Z" fill="#2C2C2C"/>
<path fill-rule="evenodd" clip-rule="evenodd" d="M27.2183 42.0989L27.2033 53.9356L29.7055 53.939L29.7206 42.0469L34.2852 53.0282L36.5957 52.0677L32.0625 41.1619L40.4028 49.5238L42.1744 47.7564L33.7983 39.3589L44.7534 43.9054L45.7121 41.5942L34.756 37.0472H46.6184V34.545H34.7845L45.7226 30.0276L44.7671 27.7148L33.876 32.2129L42.2507 23.9237L40.4908 22.1453L32.0118 30.5373L36.5811 19.5173L34.2695 18.5589L29.7365 29.492L29.7515 17.6565L27.2493 17.6533L27.2342 29.5464L22.6691 18.5643L20.3586 19.5247L24.8914 30.4294L16.5516 22.0684L14.78 23.8355L23.1564 32.2332L12.2012 27.6866L11.2421 29.9977L22.1989 34.545H10.3359V37.0472H22.1707L11.2323 41.5648L12.1874 43.8775L23.0782 39.3797L14.7035 47.6688L16.4638 49.447L24.9422 41.0554L20.3734 52.0748L22.6848 53.0332L27.2183 42.0989Z" fill="#2C2C2C"/>
</g>
</g>
</g>
</g>
<defs>
<clipPath id="clip0_1_33952">
<rect width="200" height="72" fill="white"/>
</clipPath>
<clipPath id="clip1_1_33952">
<rect width="200" height="72" fill="white"/>
</clipPath>
<clipPath id="clip2_1_33952">
<rect width="200" height="72" fill="white"/>
</clipPath>
</defs>
</svg>
